<?xml version="1.0"?>
<!--Icons from directory ""-->
<svg xmlns="http://www.w3.org/2000/svg" width="63" height="630" viewBox="0 0 63 630"><svg width="63" height="63" id="email-active" y="0"><circle fill="#fff" cx="31.654" cy="-82.326" r="31.654"/><circle fill="#fff" cx="145.651" cy="-82.326" r="31.654"/><path fill="#9D9D9D" d="M31.653-78.958l16-14.935v-1.433h-32v26h32v-21l-2.987 3.858v14.147h-26.062l.021-18.868 13.028 12.231zm0-2.754l-.01.009-11.493-10.882 23.002-.045-11.489 10.927-.01-.009z"/><circle fill="#fff" cx="-83.24" cy="-82.326" r="31.654"/><g fill-rule="evenodd" clip-rule="evenodd" fill="#9D9D9D"><path d="M137.197-69.195v-20.949h-6.962v20.949h6.962zm-3.48-23.809c2.428 0 3.939-1.61 3.939-3.62-.045-2.055-1.512-3.62-3.893-3.62-2.384 0-3.94 1.565-3.94 3.62 0 2.01 1.511 3.62 3.849 3.62h.045zM141.052-69.195h6.963v-11.699c0-.626.045-1.252.229-1.699.502-1.251 1.648-2.547 3.572-2.547 2.521 0 3.527 1.922 3.527 4.738v11.207h6.963v-12.012c0-6.435-3.436-9.429-8.017-9.429-3.757 0-5.405 2.1-6.322 3.531h.047v-3.039h-6.963c.092 1.964.001 20.949.001 20.949z"/></g><circle fill="#fff" cx="260.157" cy="-82.326" r="31.654"/><path fill="#9D9D9D" d="M261.035-101.054c-10.222 0-15.376 7.329-15.376 13.44 0 3.7 1.401 6.992 4.406 8.219.492.202.934.007 1.076-.538l.439-1.727c.145-.54.089-.729-.309-1.199-.867-1.022-1.421-2.345-1.421-4.219 0-5.437 4.068-10.304 10.593-10.304 5.777 0 8.951 3.53 8.951 8.245 0 6.203-2.745 11.438-6.82 11.438-2.251 0-3.936-1.861-3.396-4.144.646-2.726 1.899-5.667 1.899-7.634 0-1.761-.945-3.23-2.901-3.23-2.301 0-4.149 2.38-4.149 5.569 0 2.031.687 3.404.687 3.404s-2.354 9.977-2.768 11.724c-.822 3.479-.123 7.745-.064 8.175.034.255.363.316.512.124.212-.277 2.952-3.661 3.884-7.041.264-.957 1.514-5.914 1.514-5.914.747 1.426 2.932 2.682 5.255 2.682 6.916 0 11.608-6.305 11.608-14.745 0-6.381-5.405-12.325-13.62-12.325z"/><path fill="#9D9D9D" d="M-63.809-92.63c-1.333.592-2.767.992-4.271 1.171 1.535-.92 2.714-2.377 3.27-4.114-1.438.852-3.029 1.471-4.723 1.804-1.356-1.444-3.289-2.348-5.427-2.348-4.107 0-7.438 3.329-7.438 7.436 0 .583.067 1.15.194 1.695-6.182-.311-11.66-3.271-15.328-7.77-.641 1.099-1.007 2.376-1.007 3.739 0 2.58 1.312 4.856 3.308 6.19-1.219-.039-2.365-.374-3.368-.931v.094c0 3.603 2.563 6.608 5.964 7.292-.623.169-1.281.261-1.959.261-.479 0-.945-.046-1.398-.134.946 2.955 3.691 5.105 6.946 5.165-2.544 1.995-5.751 3.183-9.235 3.183-.6 0-1.192-.035-1.773-.104 3.291 2.11 7.2 3.341 11.399 3.341 13.678 0 21.158-11.332 21.158-21.159 0-.322-.007-.643-.021-.961 1.45-1.049 2.711-2.359 3.709-3.85z"/><circle fill="#fff" cx="-197.191" cy="-82.326" r="31.654"/><polyline fill="#9D9D9D" points="-206.926,-58.376 -200.516,-78.065 -213.153,-78.065 -191.633,-107.185 -197.86,-86.673 -183.941,-86.673"/><circle fill="#5B588B" cx="31.654" cy="31.653" r="31.654"/><circle fill="#1A527E" cx="145.651" cy="31.653" r="31.654"/><path fill="#fff" d="M31.653 35.021l16-14.936v-1.432h-32v26h32v-20.999l-2.987 3.857v14.149h-26.062l.021-18.869 13.028 12.23zm0-2.753l-.01.01-11.493-10.883 23.002-.046-11.489 10.928-.01-.009z"/><circle fill="#6ACAF2" cx="-83.24" cy="31.653" r="31.654"/><g fill-rule="evenodd" clip-rule="evenodd" fill="#fff"><path d="M137.197 44.784v-20.949h-6.962v20.949h6.962zm-3.48-23.809c2.428 0 3.939-1.609 3.939-3.619-.045-2.055-1.512-3.62-3.893-3.62-2.384 0-3.94 1.565-3.94 3.62 0 2.01 1.511 3.619 3.849 3.619h.045zM141.052 44.784h6.963v-11.698c0-.627.045-1.252.229-1.699.502-1.252 1.648-2.548 3.572-2.548 2.521 0 3.527 1.923 3.527 4.738v11.207h6.963v-12.012c0-6.435-3.436-9.429-8.017-9.429-3.757 0-5.405 2.1-6.322 3.53h.047v-3.039h-6.963c.092 1.966.001 20.95.001 20.95z"/></g><circle fill="#BC3C2D" cx="260.157" cy="31.653" r="31.654"/><path fill="#fff" d="M261.035 12.926c-10.222 0-15.376 7.328-15.376 13.439 0 3.701 1.401 6.992 4.406 8.219.492.202.934.008 1.076-.537l.439-1.727c.145-.54.089-.729-.309-1.199-.867-1.022-1.421-2.346-1.421-4.22 0-5.437 4.068-10.304 10.593-10.304 5.777 0 8.951 3.529 8.951 8.244 0 6.203-2.745 11.439-6.82 11.439-2.251 0-3.936-1.861-3.396-4.145.646-2.726 1.899-5.667 1.899-7.635 0-1.76-.945-3.229-2.901-3.229-2.301 0-4.149 2.38-4.149 5.569 0 2.03.687 3.404.687 3.404s-2.354 9.977-2.768 11.723c-.822 3.479-.123 7.745-.064 8.176.034.256.363.316.512.123.212-.277 2.952-3.66 3.884-7.04.264-.957 1.514-5.913 1.514-5.913.747 1.426 2.932 2.682 5.255 2.682 6.916 0 11.608-6.306 11.608-14.745 0-6.381-5.405-12.324-13.62-12.324z"/><path fill="#fff" d="M-63.809 21.35c-1.333.592-2.767.991-4.271 1.171 1.535-.921 2.714-2.378 3.27-4.114-1.438.853-3.029 1.472-4.723 1.805-1.356-1.445-3.289-2.348-5.427-2.348-4.107 0-7.438 3.328-7.438 7.436 0 .584.067 1.15.194 1.695-6.182-.311-11.66-3.271-15.328-7.771-.641 1.099-1.007 2.376-1.007 3.739 0 2.579 1.312 4.855 3.308 6.189-1.219-.039-2.365-.373-3.368-.931v.094c0 3.603 2.563 6.608 5.964 7.292-.623.17-1.281.261-1.959.261-.479 0-.945-.046-1.398-.134.946 2.955 3.691 5.104 6.946 5.164-2.544 1.995-5.751 3.184-9.235 3.184-.6 0-1.192-.035-1.773-.104 3.291 2.109 7.2 3.341 11.399 3.341 13.678 0 21.158-11.331 21.158-21.159 0-.322-.007-.643-.021-.961 1.45-1.049 2.711-2.359 3.709-3.849z"/><circle fill="#5ABA6C" cx="-197.191" cy="31.653" r="31.654"/><polyline fill="#fff" points="-206.926,55.604 -200.516,35.914 -213.153,35.914 -191.633,6.795 -197.86,27.307 -183.941,27.307"/></svg><svg width="63" height="63" id="email" y="63"><circle fill="#fff" cx="31.654" cy="31.654" r="31.654"/><circle fill="#fff" cx="145.651" cy="31.654" r="31.654"/><path fill="#9D9D9D" d="M31.653 35.022l16-14.935v-1.433h-32v26h32v-21l-2.987 3.858v14.148h-26.062l.021-18.868 13.028 12.23zm0-2.754l-.01.009-11.493-10.882 23.002-.045-11.489 10.927-.01-.009z"/><circle fill="#fff" cx="-83.24" cy="31.654" r="31.654"/><g fill-rule="evenodd" clip-rule="evenodd" fill="#9D9D9D"><path d="M137.197 44.785v-20.95h-6.962v20.949h6.962v.001zm-3.48-23.809c2.428 0 3.939-1.61 3.939-3.62-.045-2.055-1.512-3.62-3.893-3.62-2.384 0-3.94 1.565-3.94 3.62 0 2.01 1.511 3.62 3.849 3.62h.045zM141.052 44.785h6.963v-11.699c0-.626.045-1.252.229-1.699.502-1.251 1.648-2.547 3.572-2.547 2.521 0 3.527 1.922 3.527 4.738v11.207h6.963v-12.012c0-6.435-3.436-9.429-8.017-9.429-3.757 0-5.405 2.1-6.322 3.531h.047v-3.039h-6.963c.092 1.964.001 20.949.001 20.949z"/></g><circle fill="#fff" cx="260.157" cy="31.654" r="31.654"/><path fill="#9D9D9D" d="M261.035 12.926c-10.222 0-15.376 7.329-15.376 13.44 0 3.7 1.401 6.992 4.406 8.219.492.202.934.007 1.076-.538l.439-1.727c.145-.54.089-.729-.309-1.199-.867-1.022-1.421-2.345-1.421-4.219 0-5.437 4.068-10.304 10.593-10.304 5.777 0 8.951 3.53 8.951 8.245 0 6.203-2.745 11.438-6.82 11.438-2.251 0-3.936-1.861-3.396-4.144.646-2.726 1.899-5.667 1.899-7.634 0-1.761-.945-3.23-2.901-3.23-2.301 0-4.149 2.38-4.149 5.569 0 2.031.687 3.404.687 3.404s-2.354 9.977-2.768 11.724c-.822 3.479-.123 7.745-.064 8.175.034.255.363.316.512.124.212-.277 2.952-3.661 3.884-7.041.264-.957 1.514-5.914 1.514-5.914.747 1.426 2.932 2.682 5.255 2.682 6.916 0 11.608-6.305 11.608-14.745 0-6.381-5.405-12.325-13.62-12.325z"/><path fill="#9D9D9D" d="M-63.809 21.35c-1.333.592-2.767.992-4.271 1.171 1.535-.92 2.714-2.377 3.27-4.114-1.438.852-3.029 1.471-4.723 1.804-1.356-1.444-3.289-2.348-5.427-2.348-4.107 0-7.438 3.329-7.438 7.436 0 .583.067 1.15.194 1.695-6.182-.311-11.66-3.271-15.328-7.77-.641 1.099-1.007 2.376-1.007 3.739 0 2.58 1.312 4.856 3.308 6.19-1.219-.039-2.365-.374-3.368-.931v.094c0 3.603 2.563 6.608 5.964 7.292-.623.169-1.281.261-1.959.261-.479 0-.945-.046-1.398-.134.946 2.955 3.691 5.105 6.946 5.165-2.544 1.995-5.751 3.183-9.235 3.183-.6 0-1.192-.035-1.773-.104 3.291 2.11 7.2 3.341 11.399 3.341 13.678 0 21.158-11.332 21.158-21.159 0-.322-.007-.643-.021-.961 1.45-1.049 2.711-2.359 3.709-3.85z"/><circle fill="#fff" cx="-197.191" cy="31.654" r="31.654"/><polyline fill="#9D9D9D" points="-206.926,55.604 -200.516,35.915 -213.153,35.915 -191.633,6.795 -197.86,27.307 -183.941,27.307"/><circle fill="#5B588B" cx="31.654" cy="145.633" r="31.654"/><circle fill="#1A527E" cx="145.651" cy="145.633" r="31.654"/><path fill="#fff" d="M31.653 149.001l16-14.936v-1.432h-32v26h32v-21l-2.987 3.857v14.148h-26.062l.021-18.869 13.028 12.232zm0-2.753l-.01.01-11.493-10.883 23.002-.046-11.489 10.929-.01-.01z"/><circle fill="#6ACAF2" cx="-83.24" cy="145.633" r="31.654"/><g fill-rule="evenodd" clip-rule="evenodd" fill="#fff"><path d="M137.197 158.764v-20.949h-6.962v20.949h6.962zm-3.48-23.809c2.428 0 3.939-1.609 3.939-3.619-.045-2.055-1.512-3.62-3.893-3.62-2.384 0-3.94 1.565-3.94 3.62 0 2.01 1.511 3.619 3.849 3.619h.045zM141.052 158.764h6.963v-11.698c0-.627.045-1.252.229-1.699.502-1.252 1.648-2.548 3.572-2.548 2.521 0 3.527 1.923 3.527 4.738v11.207h6.963v-12.012c0-6.435-3.436-9.429-8.017-9.429-3.757 0-5.405 2.1-6.322 3.53h.047v-3.039h-6.963c.092 1.966.001 20.95.001 20.95z"/></g><circle fill="#BC3C2D" cx="260.157" cy="145.633" r="31.654"/><path fill="#fff" d="M261.035 126.906c-10.222 0-15.376 7.328-15.376 13.439 0 3.701 1.401 6.992 4.406 8.219.492.202.934.008 1.076-.537l.439-1.727c.145-.54.089-.729-.309-1.199-.867-1.022-1.421-2.346-1.421-4.22 0-5.437 4.068-10.304 10.593-10.304 5.777 0 8.951 3.529 8.951 8.244 0 6.203-2.745 11.439-6.82 11.439-2.251 0-3.936-1.861-3.396-4.145.646-2.726 1.899-5.667 1.899-7.635 0-1.76-.945-3.229-2.901-3.229-2.301 0-4.149 2.38-4.149 5.569 0 2.03.687 3.404.687 3.404s-2.354 9.977-2.768 11.723c-.822 3.479-.123 7.745-.064 8.176.034.256.363.316.512.123.212-.277 2.952-3.66 3.884-7.04.264-.957 1.514-5.913 1.514-5.913.747 1.426 2.932 2.682 5.255 2.682 6.916 0 11.608-6.306 11.608-14.745 0-6.381-5.405-12.324-13.62-12.324z"/><path fill="#fff" d="M-63.809 135.33c-1.333.592-2.767.991-4.271 1.171 1.535-.921 2.714-2.378 3.27-4.114-1.438.853-3.029 1.472-4.723 1.805-1.356-1.445-3.289-2.348-5.427-2.348-4.107 0-7.438 3.328-7.438 7.436 0 .584.067 1.15.194 1.695-6.182-.311-11.66-3.271-15.328-7.771-.641 1.099-1.007 2.376-1.007 3.739 0 2.579 1.312 4.855 3.308 6.189-1.219-.039-2.365-.373-3.368-.931v.094c0 3.603 2.563 6.608 5.964 7.292-.623.17-1.281.261-1.959.261-.479 0-.945-.046-1.398-.134.946 2.955 3.691 5.104 6.946 5.164-2.544 1.995-5.751 3.184-9.235 3.184-.6 0-1.192-.035-1.773-.104 3.291 2.109 7.2 3.341 11.399 3.341 13.678 0 21.158-11.331 21.158-21.159 0-.322-.007-.643-.021-.961 1.45-1.049 2.711-2.359 3.709-3.849z"/><circle fill="#5ABA6C" cx="-197.191" cy="145.633" r="31.654"/><polyline fill="#fff" points="-206.926,169.583 -200.516,149.894 -213.153,149.894 -191.633,120.775 -197.86,141.287 -183.941,141.287"/></svg><svg width="63" height="63" id="linkedin-active" y="126"><circle fill="#fff" cx="-82.343" cy="-82.326" r="31.654"/><circle fill="#fff" cx="31.654" cy="-82.326" r="31.654"/><path fill="#9D9D9D" d="M-82.344-78.958l16-14.935v-1.433h-32v26h32v-21l-2.987 3.858v14.147h-26.062l.021-18.868 13.028 12.231zm0-2.754l-.01.009-11.493-10.883 23.002-.045-11.489 10.928-.01-.009z"/><circle fill="#fff" cx="-197.237" cy="-82.326" r="31.654"/><g fill-rule="evenodd" clip-rule="evenodd" fill="#9D9D9D"><path d="M23.2-69.195v-20.949h-6.962v20.949h6.962zm-3.48-23.809c2.428 0 3.939-1.61 3.939-3.62-.045-2.055-1.512-3.62-3.893-3.62-2.384 0-3.94 1.565-3.94 3.62 0 2.01 1.511 3.62 3.849 3.62h.045zM27.055-69.195h6.963v-11.699c0-.626.045-1.252.229-1.699.502-1.251 1.648-2.547 3.572-2.547 2.521 0 3.527 1.922 3.527 4.738v11.207h6.963v-12.012c0-6.435-3.436-9.429-8.017-9.429-3.757 0-5.405 2.1-6.322 3.531h.047v-3.039h-6.963c.092 1.964.001 20.949.001 20.949z"/></g><circle fill="#fff" cx="146.16" cy="-82.326" r="31.654"/><path fill="#9D9D9D" d="M147.038-101.054c-10.222 0-15.376 7.329-15.376 13.44 0 3.7 1.401 6.992 4.406 8.219.492.202.934.007 1.076-.538l.439-1.727c.145-.54.089-.729-.309-1.199-.867-1.022-1.421-2.345-1.421-4.219 0-5.437 4.068-10.304 10.593-10.304 5.777 0 8.951 3.53 8.951 8.245 0 6.203-2.745 11.438-6.82 11.438-2.251 0-3.936-1.861-3.396-4.144.646-2.726 1.899-5.667 1.899-7.634 0-1.761-.945-3.23-2.901-3.23-2.301 0-4.149 2.38-4.149 5.569 0 2.031.687 3.404.687 3.404s-2.354 9.977-2.768 11.724c-.822 3.479-.123 7.745-.064 8.175.034.255.363.316.512.124.212-.277 2.952-3.661 3.884-7.041.264-.957 1.514-5.914 1.514-5.914.747 1.426 2.932 2.682 5.255 2.682 6.916 0 11.608-6.305 11.608-14.745 0-6.381-5.405-12.325-13.62-12.325z"/><path fill="#9D9D9D" d="M-177.806-92.63c-1.333.592-2.767.992-4.271 1.171 1.535-.92 2.714-2.377 3.27-4.114-1.438.852-3.029 1.471-4.723 1.804-1.356-1.444-3.289-2.348-5.427-2.348-4.107 0-7.438 3.329-7.438 7.436 0 .583.067 1.15.194 1.695-6.182-.311-11.66-3.271-15.328-7.77-.641 1.099-1.007 2.376-1.007 3.739 0 2.58 1.312 4.856 3.308 6.19-1.219-.039-2.365-.374-3.368-.931v.094c0 3.603 2.563 6.608 5.964 7.292-.623.169-1.281.261-1.959.261-.479 0-.945-.046-1.398-.134.946 2.955 3.691 5.105 6.946 5.165-2.544 1.995-5.751 3.183-9.235 3.183-.6 0-1.192-.035-1.773-.104 3.291 2.11 7.2 3.341 11.399 3.341 13.678 0 21.158-11.332 21.158-21.159 0-.322-.007-.643-.021-.961 1.45-1.049 2.711-2.359 3.709-3.85z"/><circle fill="#fff" cx="-311.188" cy="-82.326" r="31.654"/><polyline fill="#9D9D9D" points="-320.923,-58.376 -314.513,-78.065 -327.15,-78.065 -305.63,-107.185 -311.857,-86.673 -297.938,-86.673"/><circle fill="#5B588B" cx="-82.343" cy="31.653" r="31.654"/><circle fill="#1A527E" cx="31.654" cy="31.653" r="31.654"/><path fill="#fff" d="M-82.344 35.021l16-14.936v-1.432h-32v26h32v-20.999l-2.987 3.857v14.149h-26.062l.021-18.869 13.028 12.23zm0-2.753l-.01.01-11.493-10.883 23.002-.046-11.489 10.929-.01-.01z"/><circle fill="#6ACAF2" cx="-197.237" cy="31.653" r="31.654"/><g fill-rule="evenodd" clip-rule="evenodd" fill="#fff"><path d="M23.2 44.784v-20.949h-6.962v20.949h6.962zm-3.48-23.809c2.428 0 3.939-1.609 3.939-3.619-.045-2.055-1.512-3.62-3.893-3.62-2.384 0-3.94 1.565-3.94 3.62 0 2.01 1.511 3.619 3.849 3.619h.045zM27.055 44.784h6.963v-11.698c0-.627.045-1.252.229-1.699.502-1.252 1.648-2.548 3.572-2.548 2.521 0 3.527 1.923 3.527 4.738v11.207h6.963v-12.012c0-6.435-3.436-9.429-8.017-9.429-3.757 0-5.405 2.1-6.322 3.53h.047v-3.039h-6.963c.092 1.966.001 20.95.001 20.95z"/></g><circle fill="#BC3C2D" cx="146.16" cy="31.653" r="31.654"/><path fill="#fff" d="M147.038 12.926c-10.222 0-15.376 7.328-15.376 13.439 0 3.701 1.401 6.992 4.406 8.219.492.202.934.008 1.076-.537l.439-1.727c.145-.54.089-.729-.309-1.199-.867-1.022-1.421-2.346-1.421-4.22 0-5.437 4.068-10.304 10.593-10.304 5.777 0 8.951 3.529 8.951 8.244 0 6.203-2.745 11.439-6.82 11.439-2.251 0-3.936-1.861-3.396-4.145.646-2.726 1.899-5.667 1.899-7.635 0-1.76-.945-3.229-2.901-3.229-2.301 0-4.149 2.38-4.149 5.569 0 2.03.687 3.404.687 3.404s-2.354 9.977-2.768 11.723c-.822 3.479-.123 7.745-.064 8.176.034.256.363.316.512.123.212-.277 2.952-3.66 3.884-7.04.264-.957 1.514-5.913 1.514-5.913.747 1.426 2.932 2.682 5.255 2.682 6.916 0 11.608-6.306 11.608-14.745 0-6.381-5.405-12.324-13.62-12.324z"/><path fill="#fff" d="M-177.806 21.35c-1.333.592-2.767.991-4.271 1.171 1.535-.921 2.714-2.378 3.27-4.114-1.438.853-3.029 1.472-4.723 1.805-1.356-1.445-3.289-2.348-5.427-2.348-4.107 0-7.438 3.328-7.438 7.436 0 .584.067 1.15.194 1.695-6.182-.311-11.66-3.271-15.328-7.771-.641 1.099-1.007 2.376-1.007 3.739 0 2.579 1.312 4.855 3.308 6.189-1.219-.039-2.365-.373-3.368-.931v.094c0 3.603 2.563 6.608 5.964 7.292-.623.17-1.281.261-1.959.261-.479 0-.945-.046-1.398-.134.946 2.955 3.691 5.104 6.946 5.164-2.544 1.995-5.751 3.184-9.235 3.184-.6 0-1.192-.035-1.773-.104 3.291 2.109 7.2 3.341 11.399 3.341 13.678 0 21.158-11.331 21.158-21.159 0-.322-.007-.643-.021-.961 1.45-1.049 2.711-2.359 3.709-3.849z"/><circle fill="#5ABA6C" cx="-311.188" cy="31.653" r="31.654"/><polyline fill="#fff" points="-320.923,55.604 -314.513,35.914 -327.15,35.914 -305.63,6.795 -311.857,27.307 -297.938,27.307"/></svg><svg width="63" height="63" id="linkedin" y="189"><circle fill="#fff" cx="-82.343" cy="31.654" r="31.654"/><circle fill="#fff" cx="31.654" cy="31.654" r="31.654"/><path fill="#9D9D9D" d="M-82.344 35.022l16-14.935v-1.433h-32v26h32v-21l-2.987 3.858v14.148h-26.062l.021-18.868 13.028 12.23zm0-2.754l-.01.009-11.493-10.883 23.002-.045-11.489 10.928-.01-.009z"/><circle fill="#fff" cx="-197.237" cy="31.654" r="31.654"/><g fill-rule="evenodd" clip-rule="evenodd" fill="#9D9D9D"><path d="M23.2 44.785v-20.95h-6.962v20.949h6.962v.001zm-3.48-23.809c2.428 0 3.939-1.61 3.939-3.62-.045-2.055-1.512-3.62-3.893-3.62-2.384 0-3.94 1.565-3.94 3.62 0 2.01 1.511 3.62 3.849 3.62h.045zM27.055 44.785h6.963v-11.699c0-.626.045-1.252.229-1.699.502-1.251 1.648-2.547 3.572-2.547 2.521 0 3.527 1.922 3.527 4.738v11.207h6.963v-12.012c0-6.435-3.436-9.429-8.017-9.429-3.757 0-5.405 2.1-6.322 3.531h.047v-3.039h-6.963c.092 1.964.001 20.949.001 20.949z"/></g><circle fill="#fff" cx="146.16" cy="31.654" r="31.654"/><path fill="#9D9D9D" d="M147.038 12.926c-10.222 0-15.376 7.329-15.376 13.44 0 3.7 1.401 6.992 4.406 8.219.492.202.934.007 1.076-.538l.439-1.727c.145-.54.089-.729-.309-1.199-.867-1.022-1.421-2.345-1.421-4.219 0-5.437 4.068-10.304 10.593-10.304 5.777 0 8.951 3.53 8.951 8.245 0 6.203-2.745 11.438-6.82 11.438-2.251 0-3.936-1.861-3.396-4.144.646-2.726 1.899-5.667 1.899-7.634 0-1.761-.945-3.23-2.901-3.23-2.301 0-4.149 2.38-4.149 5.569 0 2.031.687 3.404.687 3.404s-2.354 9.977-2.768 11.724c-.822 3.479-.123 7.745-.064 8.175.034.255.363.316.512.124.212-.277 2.952-3.661 3.884-7.041.264-.957 1.514-5.914 1.514-5.914.747 1.426 2.932 2.682 5.255 2.682 6.916 0 11.608-6.305 11.608-14.745 0-6.381-5.405-12.325-13.62-12.325z"/><path fill="#9D9D9D" d="M-177.806 21.35c-1.333.592-2.767.992-4.271 1.171 1.535-.92 2.714-2.377 3.27-4.114-1.438.852-3.029 1.471-4.723 1.804-1.356-1.444-3.289-2.348-5.427-2.348-4.107 0-7.438 3.329-7.438 7.436 0 .583.067 1.15.194 1.695-6.182-.311-11.66-3.271-15.328-7.77-.641 1.099-1.007 2.376-1.007 3.739 0 2.58 1.312 4.856 3.308 6.19-1.219-.039-2.365-.374-3.368-.931v.094c0 3.603 2.563 6.608 5.964 7.292-.623.169-1.281.261-1.959.261-.479 0-.945-.046-1.398-.134.946 2.955 3.691 5.105 6.946 5.165-2.544 1.995-5.751 3.183-9.235 3.183-.6 0-1.192-.035-1.773-.104 3.291 2.11 7.2 3.341 11.399 3.341 13.678 0 21.158-11.332 21.158-21.159 0-.322-.007-.643-.021-.961 1.45-1.049 2.711-2.359 3.709-3.85z"/><circle fill="#fff" cx="-311.188" cy="31.654" r="31.654"/><polyline fill="#9D9D9D" points="-320.923,55.604 -314.513,35.915 -327.15,35.915 -305.63,6.795 -311.857,27.307 -297.938,27.307"/><circle fill="#5B588B" cx="-82.343" cy="145.633" r="31.654"/><circle fill="#1A527E" cx="31.654" cy="145.633" r="31.654"/><path fill="#fff" d="M-82.344 149.001l16-14.936v-1.432h-32v26h32v-21l-2.987 3.857v14.148h-26.062l.021-18.869 13.028 12.232zm0-2.753l-.01.01-11.493-10.883 23.002-.046-11.489 10.929-.01-.01z"/><circle fill="#6ACAF2" cx="-197.237" cy="145.633" r="31.654"/><g fill-rule="evenodd" clip-rule="evenodd" fill="#fff"><path d="M23.2 158.764v-20.949h-6.962v20.949h6.962zm-3.48-23.809c2.428 0 3.939-1.609 3.939-3.619-.045-2.055-1.512-3.62-3.893-3.62-2.384 0-3.94 1.565-3.94 3.62 0 2.01 1.511 3.619 3.849 3.619h.045zM27.055 158.764h6.963v-11.698c0-.627.045-1.252.229-1.699.502-1.252 1.648-2.548 3.572-2.548 2.521 0 3.527 1.923 3.527 4.738v11.207h6.963v-12.012c0-6.435-3.436-9.429-8.017-9.429-3.757 0-5.405 2.1-6.322 3.53h.047v-3.039h-6.963c.092 1.966.001 20.95.001 20.95z"/></g><circle fill="#BC3C2D" cx="146.16" cy="145.633" r="31.654"/><path fill="#fff" d="M147.038 126.906c-10.222 0-15.376 7.328-15.376 13.439 0 3.701 1.401 6.992 4.406 8.219.492.202.934.008 1.076-.537l.439-1.727c.145-.54.089-.729-.309-1.199-.867-1.022-1.421-2.346-1.421-4.22 0-5.437 4.068-10.304 10.593-10.304 5.777 0 8.951 3.529 8.951 8.244 0 6.203-2.745 11.439-6.82 11.439-2.251 0-3.936-1.861-3.396-4.145.646-2.726 1.899-5.667 1.899-7.635 0-1.76-.945-3.229-2.901-3.229-2.301 0-4.149 2.38-4.149 5.569 0 2.03.687 3.404.687 3.404s-2.354 9.977-2.768 11.723c-.822 3.479-.123 7.745-.064 8.176.034.256.363.316.512.123.212-.277 2.952-3.66 3.884-7.04.264-.957 1.514-5.913 1.514-5.913.747 1.426 2.932 2.682 5.255 2.682 6.916 0 11.608-6.306 11.608-14.745 0-6.381-5.405-12.324-13.62-12.324z"/><path fill="#fff" d="M-177.806 135.33c-1.333.592-2.767.991-4.271 1.171 1.535-.921 2.714-2.378 3.27-4.114-1.438.853-3.029 1.472-4.723 1.805-1.356-1.445-3.289-2.348-5.427-2.348-4.107 0-7.438 3.328-7.438 7.436 0 .584.067 1.15.194 1.695-6.182-.311-11.66-3.271-15.328-7.771-.641 1.099-1.007 2.376-1.007 3.739 0 2.579 1.312 4.855 3.308 6.189-1.219-.039-2.365-.373-3.368-.931v.094c0 3.603 2.563 6.608 5.964 7.292-.623.17-1.281.261-1.959.261-.479 0-.945-.046-1.398-.134.946 2.955 3.691 5.104 6.946 5.164-2.544 1.995-5.751 3.184-9.235 3.184-.6 0-1.192-.035-1.773-.104 3.291 2.109 7.2 3.341 11.399 3.341 13.678 0 21.158-11.331 21.158-21.159 0-.322-.007-.643-.021-.961 1.45-1.049 2.711-2.359 3.709-3.849z"/><circle fill="#5ABA6C" cx="-311.188" cy="145.633" r="31.654"/><polyline fill="#fff" points="-320.923,169.583 -314.513,149.894 -327.15,149.894 -305.63,120.775 -311.857,141.287 -297.938,141.287"/></svg><svg width="63" height="63" id="pinterest-active" y="252"><circle fill="#fff" cx="-196.849" cy="-82.326" r="31.654"/><circle fill="#fff" cx="-82.852" cy="-82.326" r="31.654"/><path fill="#9D9D9D" d="M-196.85-78.958l16-14.935v-1.433h-32v26h32v-21l-2.987 3.858v14.147h-26.062l.021-18.868 13.028 12.231zm0-2.754l-.01.009-11.493-10.883 23.002-.045-11.489 10.928-.01-.009z"/><circle fill="#fff" cx="-311.743" cy="-82.326" r="31.654"/><g fill-rule="evenodd" clip-rule="evenodd" fill="#9D9D9D"><path d="M-91.306-69.195v-20.949h-6.962v20.949h6.962zm-3.48-23.809c2.428 0 3.939-1.61 3.939-3.62-.045-2.055-1.512-3.62-3.893-3.62-2.384 0-3.94 1.565-3.94 3.62 0 2.01 1.511 3.62 3.849 3.62h.045zM-87.451-69.195h6.963v-11.699c0-.626.045-1.252.229-1.699.502-1.251 1.648-2.547 3.572-2.547 2.521 0 3.527 1.922 3.527 4.738v11.207h6.963v-12.012c0-6.435-3.436-9.429-8.017-9.429-3.757 0-5.405 2.1-6.322 3.531h.047v-3.039h-6.963c.092 1.964.001 20.949.001 20.949z"/></g><circle fill="#fff" cx="31.654" cy="-82.326" r="31.654"/><path fill="#9D9D9D" d="M32.532-101.054c-10.222 0-15.376 7.329-15.376 13.44 0 3.7 1.401 6.992 4.406 8.219.492.202.934.007 1.076-.538l.439-1.727c.145-.54.089-.729-.309-1.199-.867-1.022-1.421-2.345-1.421-4.219 0-5.437 4.068-10.304 10.593-10.304 5.777 0 8.951 3.53 8.951 8.245 0 6.203-2.745 11.438-6.82 11.438-2.251 0-3.936-1.861-3.396-4.144.646-2.726 1.899-5.667 1.899-7.634 0-1.761-.945-3.23-2.901-3.23-2.301 0-4.149 2.38-4.149 5.569 0 2.031.687 3.404.687 3.404s-2.354 9.977-2.768 11.724c-.822 3.479-.123 7.745-.064 8.175.034.255.363.316.512.124.212-.277 2.952-3.661 3.884-7.041.264-.957 1.514-5.914 1.514-5.914.747 1.426 2.932 2.682 5.255 2.682 6.916 0 11.608-6.305 11.608-14.745 0-6.381-5.405-12.325-13.62-12.325z"/><path fill="#9D9D9D" d="M-292.312-92.63c-1.333.592-2.767.992-4.271 1.171 1.535-.92 2.714-2.377 3.27-4.114-1.438.852-3.029 1.471-4.723 1.804-1.356-1.444-3.289-2.348-5.427-2.348-4.107 0-7.438 3.329-7.438 7.436 0 .583.067 1.15.194 1.695-6.182-.311-11.66-3.271-15.328-7.77-.641 1.099-1.007 2.376-1.007 3.739 0 2.58 1.312 4.856 3.308 6.19-1.219-.039-2.365-.374-3.368-.931v.094c0 3.603 2.563 6.608 5.964 7.292-.623.169-1.281.261-1.959.261-.479 0-.945-.046-1.398-.134.946 2.955 3.691 5.105 6.946 5.165-2.544 1.995-5.751 3.183-9.235 3.183-.6 0-1.192-.035-1.773-.104 3.291 2.11 7.2 3.341 11.399 3.341 13.678 0 21.158-11.332 21.158-21.159 0-.322-.007-.643-.021-.961 1.45-1.049 2.711-2.359 3.709-3.85z"/><circle fill="#fff" cx="-425.694" cy="-82.326" r="31.654"/><polyline fill="#9D9D9D" points="-435.429,-58.376 -429.019,-78.065 -441.656,-78.065 -420.136,-107.185 -426.363,-86.673 -412.444,-86.673"/><circle fill="#5B588B" cx="-196.849" cy="31.653" r="31.654"/><circle fill="#1A527E" cx="-82.852" cy="31.653" r="31.654"/><path fill="#fff" d="M-196.85 35.021l16-14.936v-1.432h-32v26h32v-20.999l-2.987 3.857v14.149h-26.062l.021-18.869 13.028 12.23zm0-2.753l-.01.01-11.493-10.883 23.002-.046-11.489 10.929-.01-.01z"/><circle fill="#6ACAF2" cx="-311.743" cy="31.653" r="31.654"/><g fill-rule="evenodd" clip-rule="evenodd" fill="#fff"><path d="M-91.306 44.784v-20.949h-6.962v20.949h6.962zm-3.48-23.809c2.428 0 3.939-1.609 3.939-3.619-.045-2.055-1.512-3.62-3.893-3.62-2.384 0-3.94 1.565-3.94 3.62 0 2.01 1.511 3.619 3.849 3.619h.045zM-87.451 44.784h6.963v-11.698c0-.627.045-1.252.229-1.699.502-1.252 1.648-2.548 3.572-2.548 2.521 0 3.527 1.923 3.527 4.738v11.207h6.963v-12.012c0-6.435-3.436-9.429-8.017-9.429-3.757 0-5.405 2.1-6.322 3.53h.047v-3.039h-6.963c.092 1.966.001 20.95.001 20.95z"/></g><circle fill="#BC3C2D" cx="31.654" cy="31.653" r="31.654"/><path fill="#fff" d="M32.532 12.926c-10.222 0-15.376 7.328-15.376 13.439 0 3.701 1.401 6.992 4.406 8.219.492.202.934.008 1.076-.537l.439-1.727c.145-.54.089-.729-.309-1.199-.867-1.022-1.421-2.346-1.421-4.22 0-5.437 4.068-10.304 10.593-10.304 5.777 0 8.951 3.529 8.951 8.244 0 6.203-2.745 11.439-6.82 11.439-2.251 0-3.936-1.861-3.396-4.145.646-2.726 1.899-5.667 1.899-7.635 0-1.76-.945-3.229-2.901-3.229-2.301 0-4.149 2.38-4.149 5.569 0 2.03.687 3.404.687 3.404s-2.354 9.977-2.768 11.723c-.822 3.479-.123 7.745-.064 8.176.034.256.363.316.512.123.212-.277 2.952-3.66 3.884-7.04.264-.957 1.514-5.913 1.514-5.913.747 1.426 2.932 2.682 5.255 2.682 6.916 0 11.608-6.306 11.608-14.745 0-6.381-5.405-12.324-13.62-12.324z"/><path fill="#fff" d="M-292.312 21.35c-1.333.592-2.767.991-4.271 1.171 1.535-.921 2.714-2.378 3.27-4.114-1.438.853-3.029 1.472-4.723 1.805-1.356-1.445-3.289-2.348-5.427-2.348-4.107 0-7.438 3.328-7.438 7.436 0 .584.067 1.15.194 1.695-6.182-.311-11.66-3.271-15.328-7.771-.641 1.099-1.007 2.376-1.007 3.739 0 2.579 1.312 4.855 3.308 6.189-1.219-.039-2.365-.373-3.368-.931v.094c0 3.603 2.563 6.608 5.964 7.292-.623.17-1.281.261-1.959.261-.479 0-.945-.046-1.398-.134.946 2.955 3.691 5.104 6.946 5.164-2.544 1.995-5.751 3.184-9.235 3.184-.6 0-1.192-.035-1.773-.104 3.291 2.109 7.2 3.341 11.399 3.341 13.678 0 21.158-11.331 21.158-21.159 0-.322-.007-.643-.021-.961 1.45-1.049 2.711-2.359 3.709-3.849z"/><circle fill="#5ABA6C" cx="-425.694" cy="31.653" r="31.654"/><polyline fill="#fff" points="-435.429,55.604 -429.019,35.914 -441.656,35.914 -420.136,6.795 -426.363,27.307 -412.444,27.307"/></svg><svg width="63" height="63" id="pinterest" y="315"><circle fill="#fff" cx="-196.849" cy="31.654" r="31.654"/><circle fill="#fff" cx="-82.852" cy="31.654" r="31.654"/><path fill="#9D9D9D" d="M-196.85 35.022l16-14.935v-1.433h-32v26h32v-21l-2.987 3.858v14.148h-26.062l.021-18.868 13.028 12.23zm0-2.754l-.01.009-11.493-10.883 23.002-.045-11.489 10.928-.01-.009z"/><circle fill="#fff" cx="-311.743" cy="31.654" r="31.654"/><g fill-rule="evenodd" clip-rule="evenodd" fill="#9D9D9D"><path d="M-91.306 44.785v-20.95h-6.962v20.949h6.962v.001zm-3.48-23.809c2.428 0 3.939-1.61 3.939-3.62-.045-2.055-1.512-3.62-3.893-3.62-2.384 0-3.94 1.565-3.94 3.62 0 2.01 1.511 3.62 3.849 3.62h.045zM-87.451 44.785h6.963v-11.699c0-.626.045-1.252.229-1.699.502-1.251 1.648-2.547 3.572-2.547 2.521 0 3.527 1.922 3.527 4.738v11.207h6.963v-12.012c0-6.435-3.436-9.429-8.017-9.429-3.757 0-5.405 2.1-6.322 3.531h.047v-3.039h-6.963c.092 1.964.001 20.949.001 20.949z"/></g><circle fill="#fff" cx="31.654" cy="31.654" r="31.654"/><path fill="#9D9D9D" d="M32.532 12.926c-10.222 0-15.376 7.329-15.376 13.44 0 3.7 1.401 6.992 4.406 8.219.492.202.934.007 1.076-.538l.439-1.727c.145-.54.089-.729-.309-1.199-.867-1.022-1.421-2.345-1.421-4.219 0-5.437 4.068-10.304 10.593-10.304 5.777 0 8.951 3.53 8.951 8.245 0 6.203-2.745 11.438-6.82 11.438-2.251 0-3.936-1.861-3.396-4.144.646-2.726 1.899-5.667 1.899-7.634 0-1.761-.945-3.23-2.901-3.23-2.301 0-4.149 2.38-4.149 5.569 0 2.031.687 3.404.687 3.404s-2.354 9.977-2.768 11.724c-.822 3.479-.123 7.745-.064 8.175.034.255.363.316.512.124.212-.277 2.952-3.661 3.884-7.041.264-.957 1.514-5.914 1.514-5.914.747 1.426 2.932 2.682 5.255 2.682 6.916 0 11.608-6.305 11.608-14.745 0-6.381-5.405-12.325-13.62-12.325z"/><path fill="#9D9D9D" d="M-292.312 21.35c-1.333.592-2.767.992-4.271 1.171 1.535-.92 2.714-2.377 3.27-4.114-1.438.852-3.029 1.471-4.723 1.804-1.356-1.444-3.289-2.348-5.427-2.348-4.107 0-7.438 3.329-7.438 7.436 0 .583.067 1.15.194 1.695-6.182-.311-11.66-3.271-15.328-7.77-.641 1.099-1.007 2.376-1.007 3.739 0 2.58 1.312 4.856 3.308 6.19-1.219-.039-2.365-.374-3.368-.931v.094c0 3.603 2.563 6.608 5.964 7.292-.623.169-1.281.261-1.959.261-.479 0-.945-.046-1.398-.134.946 2.955 3.691 5.105 6.946 5.165-2.544 1.995-5.751 3.183-9.235 3.183-.6 0-1.192-.035-1.773-.104 3.291 2.11 7.2 3.341 11.399 3.341 13.678 0 21.158-11.332 21.158-21.159 0-.322-.007-.643-.021-.961 1.45-1.049 2.711-2.359 3.709-3.85z"/><circle fill="#fff" cx="-425.694" cy="31.654" r="31.654"/><polyline fill="#9D9D9D" points="-435.429,55.604 -429.019,35.915 -441.656,35.915 -420.136,6.795 -426.363,27.307 -412.444,27.307"/><circle fill="#5B588B" cx="-196.849" cy="145.633" r="31.654"/><circle fill="#1A527E" cx="-82.852" cy="145.633" r="31.654"/><path fill="#fff" d="M-196.85 149.001l16-14.936v-1.432h-32v26h32v-21l-2.987 3.857v14.148h-26.062l.021-18.869 13.028 12.232zm0-2.753l-.01.01-11.493-10.883 23.002-.046-11.489 10.929-.01-.01z"/><circle fill="#6ACAF2" cx="-311.743" cy="145.633" r="31.654"/><g fill-rule="evenodd" clip-rule="evenodd" fill="#fff"><path d="M-91.306 158.764v-20.949h-6.962v20.949h6.962zm-3.48-23.809c2.428 0 3.939-1.609 3.939-3.619-.045-2.055-1.512-3.62-3.893-3.62-2.384 0-3.94 1.565-3.94 3.62 0 2.01 1.511 3.619 3.849 3.619h.045zM-87.451 158.764h6.963v-11.698c0-.627.045-1.252.229-1.699.502-1.252 1.648-2.548 3.572-2.548 2.521 0 3.527 1.923 3.527 4.738v11.207h6.963v-12.012c0-6.435-3.436-9.429-8.017-9.429-3.757 0-5.405 2.1-6.322 3.53h.047v-3.039h-6.963c.092 1.966.001 20.95.001 20.95z"/></g><circle fill="#BC3C2D" cx="31.654" cy="145.633" r="31.654"/><path fill="#fff" d="M32.532 126.906c-10.222 0-15.376 7.328-15.376 13.439 0 3.701 1.401 6.992 4.406 8.219.492.202.934.008 1.076-.537l.439-1.727c.145-.54.089-.729-.309-1.199-.867-1.022-1.421-2.346-1.421-4.22 0-5.437 4.068-10.304 10.593-10.304 5.777 0 8.951 3.529 8.951 8.244 0 6.203-2.745 11.439-6.82 11.439-2.251 0-3.936-1.861-3.396-4.145.646-2.726 1.899-5.667 1.899-7.635 0-1.76-.945-3.229-2.901-3.229-2.301 0-4.149 2.38-4.149 5.569 0 2.03.687 3.404.687 3.404s-2.354 9.977-2.768 11.723c-.822 3.479-.123 7.745-.064 8.176.034.256.363.316.512.123.212-.277 2.952-3.66 3.884-7.04.264-.957 1.514-5.913 1.514-5.913.747 1.426 2.932 2.682 5.255 2.682 6.916 0 11.608-6.306 11.608-14.745 0-6.381-5.405-12.324-13.62-12.324z"/><path fill="#fff" d="M-292.312 135.33c-1.333.592-2.767.991-4.271 1.171 1.535-.921 2.714-2.378 3.27-4.114-1.438.853-3.029 1.472-4.723 1.805-1.356-1.445-3.289-2.348-5.427-2.348-4.107 0-7.438 3.328-7.438 7.436 0 .584.067 1.15.194 1.695-6.182-.311-11.66-3.271-15.328-7.771-.641 1.099-1.007 2.376-1.007 3.739 0 2.579 1.312 4.855 3.308 6.189-1.219-.039-2.365-.373-3.368-.931v.094c0 3.603 2.563 6.608 5.964 7.292-.623.17-1.281.261-1.959.261-.479 0-.945-.046-1.398-.134.946 2.955 3.691 5.104 6.946 5.164-2.544 1.995-5.751 3.184-9.235 3.184-.6 0-1.192-.035-1.773-.104 3.291 2.109 7.2 3.341 11.399 3.341 13.678 0 21.158-11.331 21.158-21.159 0-.322-.007-.643-.021-.961 1.45-1.049 2.711-2.359 3.709-3.849z"/><circle fill="#5ABA6C" cx="-425.694" cy="145.633" r="31.654"/><polyline fill="#fff" points="-435.429,169.583 -429.019,149.894 -441.656,149.894 -420.136,120.775 -426.363,141.287 -412.444,141.287"/></svg><svg xmlns:xlink="http://www.w3.org/1999/xlink" id="portfolio-active" xml:space="preserve" height="63" viewBox="0 0 63.308 63.308" width="63" version="1.1" y="378" x="0px" enable-background="new 0 0 63.308 63.308"><circle cy="-82.326" cx="260.5" r="31.654" fill="#fff"/><circle cy="-82.326" cx="374.5" r="31.654" fill="#fff"/>	<path d="m260.5-78.958l16-14.935v-1.433h-32v26h32v-21l-2.987 3.858v14.147h-26.062l0.021-18.868 13.03 12.231zm0-2.754l-0.01 0.009-11.493-10.883 23.002-0.045-11.489 10.928-0.01-0.009z" fill="#9D9D9D"/><circle cy="-82.326" cx="145.6" r="31.654" fill="#fff"/><g fill="#9D9D9D" clip-rule="evenodd" fill-rule="evenodd">	<path d="m366.04-69.195v-20.949h-6.962v20.949h6.96zm-3.48-23.809c2.428 0 3.939-1.61 3.939-3.62-0.045-2.055-1.512-3.62-3.893-3.62-2.384 0-3.94 1.565-3.94 3.62 0 2.01 1.511 3.62 3.849 3.62h0.04v-0.004z"/>	<path d="m369.9-69.195h6.963v-11.699c0-0.626 0.045-1.252 0.229-1.699 0.502-1.251 1.648-2.547 3.572-2.547 2.521 0 3.527 1.922 3.527 4.738v11.207h6.963v-12.012c0-6.435-3.436-9.429-8.017-9.429-3.757 0-5.405 2.1-6.322 3.531h0.047v-3.039h-6.963c0.09 1.964 0 20.949 0 20.949z"/></g><circle cy="-82.326" cx="489" r="31.654" fill="#fff"/><path d="m489.88-101.05c-10.222 0-15.376 7.329-15.376 13.44 0 3.7 1.401 6.992 4.406 8.219 0.492 0.202 0.934 0.007 1.076-0.538 0.1-0.377 0.335-1.331 0.439-1.727 0.145-0.54 0.089-0.729-0.309-1.199-0.867-1.022-1.421-2.345-1.421-4.219 0-5.437 4.068-10.304 10.593-10.304 5.777 0 8.951 3.53 8.951 8.245 0 6.203-2.745 11.438-6.82 11.438-2.251 0-3.936-1.861-3.396-4.144 0.646-2.726 1.899-5.667 1.899-7.634 0-1.761-0.945-3.23-2.901-3.23-2.301 0-4.149 2.38-4.149 5.569 0 2.031 0.687 3.404 0.687 3.404s-2.354 9.977-2.768 11.724c-0.822 3.479-0.123 7.745-0.064 8.175 0.034 0.255 0.363 0.316 0.512 0.124 0.212-0.277 2.952-3.661 3.884-7.041 0.264-0.957 1.514-5.914 1.514-5.914 0.747 1.426 2.932 2.682 5.255 2.682 6.916 0 11.608-6.305 11.608-14.745 0.01-6.385-5.39-12.325-13.61-12.325z" fill="#9D9D9D"/><path d="m165.04-92.63c-1.333 0.592-2.767 0.992-4.271 1.171 1.535-0.92 2.714-2.377 3.27-4.114-1.438 0.852-3.029 1.471-4.723 1.804-1.356-1.444-3.289-2.348-5.427-2.348-4.107 0-7.438 3.329-7.438 7.436 0 0.583 0.067 1.15 0.194 1.695-6.182-0.311-11.66-3.271-15.328-7.77-0.641 1.099-1.007 2.376-1.007 3.739 0 2.58 1.312 4.856 3.308 6.19-1.219-0.039-2.365-0.374-3.368-0.931v0.094c0 3.603 2.563 6.608 5.964 7.292-0.623 0.169-1.281 0.261-1.959 0.261-0.479 0-0.945-0.046-1.398-0.134 0.946 2.955 3.691 5.105 6.946 5.165-2.544 1.995-5.751 3.183-9.235 3.183-0.6 0-1.192-0.035-1.773-0.104 3.291 2.11 7.2 3.341 11.399 3.341 13.678 0 21.158-11.332 21.158-21.159 0-0.322-0.007-0.643-0.021-0.961 1.45-1.049 2.71-2.359 3.71-3.85z" fill="#9D9D9D"/><circle cy="-82.326" cx="31.654" r="31.654" fill="#fff"/><polyline points="21.919 -58.376 28.33 -78.065 15.692 -78.065 37.212 -107.18 30.985 -86.673 44.904 -86.673" fill="#9D9D9D"/><circle cy="31.653" cx="260.5" r="31.654" fill="#5B588B"/><circle cy="31.653" cx="374.5" r="31.654" fill="#1A527E"/>	<path d="m260.5 35.021l16-14.936v-1.432h-32v26h32v-20.999l-2.987 3.857v14.149h-26.062l0.021-18.869 13.03 12.23zm0-2.753l-0.01 0.01-11.493-10.883 23.002-0.046-11.489 10.929-0.01-0.01z" fill="#fff"/><circle cy="31.653" cx="145.6" r="31.654" fill="#6ACAF2"/><g fill="#fff" clip-rule="evenodd" fill-rule="evenodd">	<path d="m366.04 44.784v-20.949h-6.962v20.949h6.96zm-3.48-23.809c2.428 0 3.939-1.609 3.939-3.619-0.045-2.055-1.512-3.62-3.893-3.62-2.384 0-3.94 1.565-3.94 3.62 0 2.01 1.511 3.619 3.849 3.619h0.04z"/>	<path d="m369.9 44.784h6.963v-11.698c0-0.627 0.045-1.252 0.229-1.699 0.502-1.252 1.648-2.548 3.572-2.548 2.521 0 3.527 1.923 3.527 4.738v11.207h6.963v-12.012c0-6.435-3.436-9.429-8.017-9.429-3.757 0-5.405 2.1-6.322 3.53h0.047v-3.039h-6.963c0.09 1.966 0 20.95 0 20.95z"/></g><circle cy="31.653" cx="489" r="31.654" fill="#BC3C2D"/><path d="m489.88 12.926c-10.222 0-15.376 7.328-15.376 13.439 0 3.701 1.401 6.992 4.406 8.219 0.492 0.202 0.934 0.008 1.076-0.537 0.1-0.378 0.335-1.331 0.439-1.727 0.145-0.54 0.089-0.729-0.309-1.199-0.867-1.022-1.421-2.346-1.421-4.22 0-5.437 4.068-10.304 10.593-10.304 5.777 0 8.951 3.529 8.951 8.244 0 6.203-2.745 11.439-6.82 11.439-2.251 0-3.936-1.861-3.396-4.145 0.646-2.726 1.899-5.667 1.899-7.635 0-1.76-0.945-3.229-2.901-3.229-2.301 0-4.149 2.38-4.149 5.569 0 2.03 0.687 3.404 0.687 3.404s-2.354 9.977-2.768 11.723c-0.822 3.479-0.123 7.745-0.064 8.176 0.034 0.256 0.363 0.316 0.512 0.123 0.212-0.277 2.952-3.66 3.884-7.04 0.264-0.957 1.514-5.913 1.514-5.913 0.747 1.426 2.932 2.682 5.255 2.682 6.916 0 11.608-6.306 11.608-14.745 0.01-6.381-5.39-12.324-13.61-12.324z" fill="#fff"/><path d="m165.04 21.35c-1.333 0.592-2.767 0.991-4.271 1.171 1.535-0.921 2.714-2.378 3.27-4.114-1.438 0.853-3.029 1.472-4.723 1.805-1.356-1.445-3.289-2.348-5.427-2.348-4.107 0-7.438 3.328-7.438 7.436 0 0.584 0.067 1.15 0.194 1.695-6.182-0.311-11.66-3.271-15.328-7.771-0.641 1.099-1.007 2.376-1.007 3.739 0 2.579 1.312 4.855 3.308 6.189-1.219-0.039-2.365-0.373-3.368-0.931v0.094c0 3.603 2.563 6.608 5.964 7.292-0.623 0.17-1.281 0.261-1.959 0.261-0.479 0-0.945-0.046-1.398-0.134 0.946 2.955 3.691 5.104 6.946 5.164-2.544 1.995-5.751 3.184-9.235 3.184-0.6 0-1.192-0.035-1.773-0.104 3.291 2.109 7.2 3.341 11.399 3.341 13.678 0 21.158-11.331 21.158-21.159 0-0.322-0.007-0.643-0.021-0.961 1.45-1.049 2.71-2.359 3.71-3.849z" fill="#fff"/><circle cy="31.653" cx="31.654" r="31.654" fill="#5ABA6C"/><polyline points="21.919 55.604 28.33 35.914 15.692 35.914 37.212 6.795 30.985 27.307 44.904 27.307" fill="#fff"/></svg><svg xmlns:xlink="http://www.w3.org/1999/xlink" id="portfolio" xml:space="preserve" height="63" viewBox="0 0 63.308 63.308" width="63" version="1.1" y="441" x="0px" enable-background="new 0 0 63.308 63.308"><circle cy="31.654" cx="260.5" r="31.654" fill="#fff"/><circle cy="31.654" cx="374.5" r="31.654" fill="#fff"/>	<path d="m260.5 35.022l16-14.935v-1.433h-32v26h32v-21l-2.987 3.858v14.148h-26.062l0.021-18.868 13.03 12.23zm0-2.754l-0.01 0.009-11.493-10.883 23.002-0.045-11.489 10.928-0.01-0.009z" fill="#9D9D9D"/><circle cy="31.654" cx="145.6" r="31.654" fill="#fff"/><g fill="#9D9D9D" clip-rule="evenodd" fill-rule="evenodd">	<path d="m366.04 44.785v-20.95h-6.962v20.949h6.96v0.001zm-3.48-23.809c2.428 0 3.939-1.61 3.939-3.62-0.045-2.055-1.512-3.62-3.893-3.62-2.384 0-3.94 1.565-3.94 3.62 0 2.01 1.511 3.62 3.849 3.62h0.04z"/>	<path d="m369.9 44.785h6.963v-11.699c0-0.626 0.045-1.252 0.229-1.699 0.502-1.251 1.648-2.547 3.572-2.547 2.521 0 3.527 1.922 3.527 4.738v11.207h6.963v-12.012c0-6.435-3.436-9.429-8.017-9.429-3.757 0-5.405 2.1-6.322 3.531h0.047v-3.039h-6.963c0.09 1.964 0 20.949 0 20.949z"/></g><circle cy="31.654" cx="489" r="31.654" fill="#fff"/><path d="m489.88 12.926c-10.222 0-15.376 7.329-15.376 13.44 0 3.7 1.401 6.992 4.406 8.219 0.492 0.202 0.934 0.007 1.076-0.538 0.1-0.377 0.335-1.331 0.439-1.727 0.145-0.54 0.089-0.729-0.309-1.199-0.867-1.022-1.421-2.345-1.421-4.219 0-5.437 4.068-10.304 10.593-10.304 5.777 0 8.951 3.53 8.951 8.245 0 6.203-2.745 11.438-6.82 11.438-2.251 0-3.936-1.861-3.396-4.144 0.646-2.726 1.899-5.667 1.899-7.634 0-1.761-0.945-3.23-2.901-3.23-2.301 0-4.149 2.38-4.149 5.569 0 2.031 0.687 3.404 0.687 3.404s-2.354 9.977-2.768 11.724c-0.822 3.479-0.123 7.745-0.064 8.175 0.034 0.255 0.363 0.316 0.512 0.124 0.212-0.277 2.952-3.661 3.884-7.041 0.264-0.957 1.514-5.914 1.514-5.914 0.747 1.426 2.932 2.682 5.255 2.682 6.916 0 11.608-6.305 11.608-14.745 0.01-6.381-5.39-12.325-13.61-12.325z" fill="#9D9D9D"/><path d="m165.04 21.35c-1.333 0.592-2.767 0.992-4.271 1.171 1.535-0.92 2.714-2.377 3.27-4.114-1.438 0.852-3.029 1.471-4.723 1.804-1.356-1.444-3.289-2.348-5.427-2.348-4.107 0-7.438 3.329-7.438 7.436 0 0.583 0.067 1.15 0.194 1.695-6.182-0.311-11.66-3.271-15.328-7.77-0.641 1.099-1.007 2.376-1.007 3.739 0 2.58 1.312 4.856 3.308 6.19-1.219-0.039-2.365-0.374-3.368-0.931v0.094c0 3.603 2.563 6.608 5.964 7.292-0.623 0.169-1.281 0.261-1.959 0.261-0.479 0-0.945-0.046-1.398-0.134 0.946 2.955 3.691 5.105 6.946 5.165-2.544 1.995-5.751 3.183-9.235 3.183-0.6 0-1.192-0.035-1.773-0.104 3.291 2.11 7.2 3.341 11.399 3.341 13.678 0 21.158-11.332 21.158-21.159 0-0.322-0.007-0.643-0.021-0.961 1.45-1.049 2.71-2.359 3.71-3.85z" fill="#9D9D9D"/><circle cy="31.654" cx="31.654" r="31.654" fill="#fff"/><polyline points="21.919 55.604 28.33 35.915 15.692 35.915 37.212 6.795 30.985 27.307 44.904 27.307" fill="#9D9D9D"/><circle cy="145.63" cx="260.5" r="31.654" fill="#5B588B"/><circle cy="145.63" cx="374.5" r="31.654" fill="#1A527E"/>	<path d="m260.5 149l16-14.936v-1.432h-32v26h32v-21l-2.987 3.857v14.148h-26.062l0.021-18.869 13.03 12.22zm0-2.75l-0.01 0.01-11.493-10.883 23.002-0.046-11.489 10.929-0.01-0.01z" fill="#fff"/><circle cy="145.63" cx="145.6" r="31.654" fill="#6ACAF2"/><g fill="#fff" clip-rule="evenodd" fill-rule="evenodd">	<path d="m366.04 158.76v-20.949h-6.962v20.949h6.96zm-3.48-23.8c2.428 0 3.939-1.609 3.939-3.619-0.045-2.055-1.512-3.62-3.893-3.62-2.384 0-3.94 1.565-3.94 3.62 0 2.01 1.511 3.619 3.849 3.619h0.04z"/>	<path d="m369.9 158.76h6.963v-11.698c0-0.627 0.045-1.252 0.229-1.699 0.502-1.252 1.648-2.548 3.572-2.548 2.521 0 3.527 1.923 3.527 4.738v11.207h6.963v-12.012c0-6.435-3.436-9.429-8.017-9.429-3.757 0-5.405 2.1-6.322 3.53h0.047v-3.039h-6.963c0.09 1.97 0 20.95 0 20.95z"/></g><circle cy="145.63" cx="489" r="31.654" fill="#BC3C2D"/><path d="m489.88 126.91c-10.222 0-15.376 7.328-15.376 13.439 0 3.701 1.401 6.992 4.406 8.219 0.492 0.202 0.934 0.008 1.076-0.537 0.1-0.378 0.335-1.331 0.439-1.727 0.145-0.54 0.089-0.729-0.309-1.199-0.867-1.022-1.421-2.346-1.421-4.22 0-5.437 4.068-10.304 10.593-10.304 5.777 0 8.951 3.529 8.951 8.244 0 6.203-2.745 11.439-6.82 11.439-2.251 0-3.936-1.861-3.396-4.145 0.646-2.726 1.899-5.667 1.899-7.635 0-1.76-0.945-3.229-2.901-3.229-2.301 0-4.149 2.38-4.149 5.569 0 2.03 0.687 3.404 0.687 3.404s-2.354 9.977-2.768 11.723c-0.822 3.479-0.123 7.745-0.064 8.176 0.034 0.256 0.363 0.316 0.512 0.123 0.212-0.277 2.952-3.66 3.884-7.04 0.264-0.957 1.514-5.913 1.514-5.913 0.747 1.426 2.932 2.682 5.255 2.682 6.916 0 11.608-6.306 11.608-14.745 0.01-6.37-5.39-12.31-13.61-12.31z" fill="#fff"/><path d="m165.04 135.33c-1.333 0.592-2.767 0.991-4.271 1.171 1.535-0.921 2.714-2.378 3.27-4.114-1.438 0.853-3.029 1.472-4.723 1.805-1.356-1.445-3.289-2.348-5.427-2.348-4.107 0-7.438 3.328-7.438 7.436 0 0.584 0.067 1.15 0.194 1.695-6.182-0.311-11.66-3.271-15.328-7.771-0.641 1.099-1.007 2.376-1.007 3.739 0 2.579 1.312 4.855 3.308 6.189-1.219-0.039-2.365-0.373-3.368-0.931v0.094c0 3.603 2.563 6.608 5.964 7.292-0.623 0.17-1.281 0.261-1.959 0.261-0.479 0-0.945-0.046-1.398-0.134 0.946 2.955 3.691 5.104 6.946 5.164-2.544 1.995-5.751 3.184-9.235 3.184-0.6 0-1.192-0.035-1.773-0.104 3.291 2.109 7.2 3.341 11.399 3.341 13.678 0 21.158-11.331 21.158-21.159 0-0.322-0.007-0.643-0.021-0.961 1.45-1.05 2.71-2.36 3.71-3.85z" fill="#fff"/><circle cy="145.63" cx="31.654" r="31.654" fill="#5ABA6C"/><polyline points="21.919 169.58 28.33 149.89 15.692 149.89 37.212 120.78 30.985 141.29 44.904 141.29" fill="#fff"/></svg><svg width="63" height="63" id="twitter-active" y="504"><circle fill="#fff" cx="146.547" cy="-82.326" r="31.654"/><circle fill="#fff" cx="260.544" cy="-82.326" r="31.654"/><path fill="#9D9D9D" d="M146.547-78.958l16-14.935v-1.433h-32v26h32v-21l-2.987 3.858v14.147h-26.062l.021-18.868 13.028 12.231zm0-2.754l-.01.009-11.493-10.883 23.002-.045-11.489 10.928-.01-.009z"/><circle fill="#fff" cx="31.654" cy="-82.326" r="31.654"/><g fill-rule="evenodd" clip-rule="evenodd" fill="#9D9D9D"><path d="M252.091-69.195v-20.949h-6.962v20.949h6.962zm-3.481-23.809c2.428 0 3.939-1.61 3.939-3.62-.045-2.055-1.512-3.62-3.893-3.62-2.384 0-3.94 1.565-3.94 3.62 0 2.01 1.511 3.62 3.849 3.62h.045zM255.945-69.195h6.963v-11.699c0-.626.045-1.252.229-1.699.502-1.251 1.648-2.547 3.572-2.547 2.521 0 3.527 1.922 3.527 4.738v11.207h6.963v-12.012c0-6.435-3.436-9.429-8.017-9.429-3.757 0-5.405 2.1-6.322 3.531h.047v-3.039h-6.963c.092 1.964.001 20.949.001 20.949z"/></g><circle fill="#fff" cx="375.05" cy="-82.326" r="31.654"/><path fill="#9D9D9D" d="M375.929-101.054c-10.222 0-15.376 7.329-15.376 13.44 0 3.7 1.401 6.992 4.406 8.219.492.202.934.007 1.076-.538l.439-1.727c.145-.54.089-.729-.309-1.199-.867-1.022-1.421-2.345-1.421-4.219 0-5.437 4.068-10.304 10.593-10.304 5.777 0 8.951 3.53 8.951 8.245 0 6.203-2.745 11.438-6.82 11.438-2.251 0-3.936-1.861-3.396-4.144.646-2.726 1.899-5.667 1.899-7.634 0-1.761-.945-3.23-2.901-3.23-2.301 0-4.149 2.38-4.149 5.569 0 2.031.687 3.404.687 3.404s-2.354 9.977-2.768 11.724c-.822 3.479-.123 7.745-.064 8.175.034.255.363.316.512.124.212-.277 2.952-3.661 3.884-7.041.264-.957 1.514-5.914 1.514-5.914.747 1.426 2.932 2.682 5.255 2.682 6.916 0 11.608-6.305 11.608-14.745 0-6.381-5.405-12.325-13.62-12.325z"/><path fill="#9D9D9D" d="M51.084-92.63c-1.333.592-2.767.992-4.271 1.171 1.535-.92 2.714-2.377 3.27-4.114-1.438.852-3.029 1.471-4.723 1.804-1.356-1.444-3.289-2.348-5.427-2.348-4.107 0-7.438 3.329-7.438 7.436 0 .583.067 1.15.194 1.695-6.182-.311-11.66-3.271-15.328-7.77-.641 1.099-1.007 2.376-1.007 3.739 0 2.58 1.312 4.856 3.308 6.19-1.219-.039-2.365-.374-3.368-.931v.094c0 3.603 2.563 6.608 5.964 7.292-.623.169-1.281.261-1.959.261-.479 0-.945-.046-1.398-.134.946 2.955 3.691 5.105 6.946 5.165-2.544 1.995-5.751 3.183-9.235 3.183-.6 0-1.192-.035-1.773-.104 3.291 2.11 7.2 3.341 11.399 3.341 13.678 0 21.158-11.332 21.158-21.159 0-.322-.007-.643-.021-.961 1.451-1.049 2.712-2.359 3.709-3.85z"/><circle fill="#fff" cx="-82.298" cy="-82.326" r="31.654"/><polyline fill="#9D9D9D" points="-92.032,-58.376 -85.622,-78.065 -98.259,-78.065 -76.74,-107.185 -82.967,-86.673 -69.047,-86.673"/><circle fill="#5B588B" cx="146.547" cy="31.653" r="31.654"/><circle fill="#1A527E" cx="260.544" cy="31.653" r="31.654"/><path fill="#fff" d="M146.547 35.021l16-14.936v-1.432h-32v26h32v-20.999l-2.987 3.857v14.149h-26.062l.021-18.869 13.028 12.23zm0-2.753l-.01.01-11.493-10.883 23.002-.046-11.489 10.929-.01-.01z"/><circle fill="#6ACAF2" cx="31.654" cy="31.653" r="31.654"/><g fill-rule="evenodd" clip-rule="evenodd" fill="#fff"><path d="M252.091 44.784v-20.949h-6.962v20.949h6.962zm-3.481-23.809c2.428 0 3.939-1.609 3.939-3.619-.045-2.055-1.512-3.62-3.893-3.62-2.384 0-3.94 1.565-3.94 3.62 0 2.01 1.511 3.619 3.849 3.619h.045zM255.945 44.784h6.963v-11.698c0-.627.045-1.252.229-1.699.502-1.252 1.648-2.548 3.572-2.548 2.521 0 3.527 1.923 3.527 4.738v11.207h6.963v-12.012c0-6.435-3.436-9.429-8.017-9.429-3.757 0-5.405 2.1-6.322 3.53h.047v-3.039h-6.963c.092 1.966.001 20.95.001 20.95z"/></g><circle fill="#BC3C2D" cx="375.05" cy="31.653" r="31.654"/><path fill="#fff" d="M375.929 12.926c-10.222 0-15.376 7.328-15.376 13.439 0 3.701 1.401 6.992 4.406 8.219.492.202.934.008 1.076-.537l.439-1.727c.145-.54.089-.729-.309-1.199-.867-1.022-1.421-2.346-1.421-4.22 0-5.437 4.068-10.304 10.593-10.304 5.777 0 8.951 3.529 8.951 8.244 0 6.203-2.745 11.439-6.82 11.439-2.251 0-3.936-1.861-3.396-4.145.646-2.726 1.899-5.667 1.899-7.635 0-1.76-.945-3.229-2.901-3.229-2.301 0-4.149 2.38-4.149 5.569 0 2.03.687 3.404.687 3.404s-2.354 9.977-2.768 11.723c-.822 3.479-.123 7.745-.064 8.176.034.256.363.316.512.123.212-.277 2.952-3.66 3.884-7.04.264-.957 1.514-5.913 1.514-5.913.747 1.426 2.932 2.682 5.255 2.682 6.916 0 11.608-6.306 11.608-14.745 0-6.381-5.405-12.324-13.62-12.324z"/><path fill="#fff" d="M51.084 21.35c-1.333.592-2.767.991-4.271 1.171 1.535-.921 2.714-2.378 3.27-4.114-1.438.853-3.029 1.472-4.723 1.805-1.356-1.445-3.289-2.348-5.427-2.348-4.107 0-7.438 3.328-7.438 7.436 0 .584.067 1.15.194 1.695-6.182-.311-11.66-3.271-15.328-7.771-.641 1.099-1.007 2.376-1.007 3.739 0 2.579 1.312 4.855 3.308 6.189-1.219-.039-2.365-.373-3.368-.931v.094c0 3.603 2.563 6.608 5.964 7.292-.623.17-1.281.261-1.959.261-.479 0-.945-.046-1.398-.134.946 2.955 3.691 5.104 6.946 5.164-2.544 1.995-5.751 3.184-9.235 3.184-.6 0-1.192-.035-1.773-.104 3.291 2.109 7.2 3.341 11.399 3.341 13.678 0 21.158-11.331 21.158-21.159 0-.322-.007-.643-.021-.961 1.451-1.049 2.712-2.359 3.709-3.849z"/><circle fill="#5ABA6C" cx="-82.298" cy="31.653" r="31.654"/><polyline fill="#fff" points="-92.032,55.604 -85.622,35.914 -98.259,35.914 -76.74,6.795 -82.967,27.307 -69.047,27.307"/></svg><svg width="63" height="63" id="twitter" y="567"><circle fill="#fff" cx="146.547" cy="31.654" r="31.654"/><circle fill="#fff" cx="260.544" cy="31.654" r="31.654"/><path fill="#9D9D9D" d="M146.547 35.022l16-14.935v-1.433h-32v26h32v-21l-2.987 3.858v14.148h-26.062l.021-18.868 13.028 12.23zm0-2.754l-.01.009-11.493-10.883 23.002-.045-11.489 10.928-.01-.009z"/><circle fill="#fff" cx="31.654" cy="31.654" r="31.654"/><g fill-rule="evenodd" clip-rule="evenodd" fill="#9D9D9D"><path d="M252.091 44.785v-20.95h-6.962v20.949h6.962v.001zm-3.481-23.809c2.428 0 3.939-1.61 3.939-3.62-.045-2.055-1.512-3.62-3.893-3.62-2.384 0-3.94 1.565-3.94 3.62 0 2.01 1.511 3.62 3.849 3.62h.045zM255.945 44.785h6.963v-11.699c0-.626.045-1.252.229-1.699.502-1.251 1.648-2.547 3.572-2.547 2.521 0 3.527 1.922 3.527 4.738v11.207h6.963v-12.012c0-6.435-3.436-9.429-8.017-9.429-3.757 0-5.405 2.1-6.322 3.531h.047v-3.039h-6.963c.092 1.964.001 20.949.001 20.949z"/></g><circle fill="#fff" cx="375.05" cy="31.654" r="31.654"/><path fill="#9D9D9D" d="M375.929 12.926c-10.222 0-15.376 7.329-15.376 13.44 0 3.7 1.401 6.992 4.406 8.219.492.202.934.007 1.076-.538l.439-1.727c.145-.54.089-.729-.309-1.199-.867-1.022-1.421-2.345-1.421-4.219 0-5.437 4.068-10.304 10.593-10.304 5.777 0 8.951 3.53 8.951 8.245 0 6.203-2.745 11.438-6.82 11.438-2.251 0-3.936-1.861-3.396-4.144.646-2.726 1.899-5.667 1.899-7.634 0-1.761-.945-3.23-2.901-3.23-2.301 0-4.149 2.38-4.149 5.569 0 2.031.687 3.404.687 3.404s-2.354 9.977-2.768 11.724c-.822 3.479-.123 7.745-.064 8.175.034.255.363.316.512.124.212-.277 2.952-3.661 3.884-7.041.264-.957 1.514-5.914 1.514-5.914.747 1.426 2.932 2.682 5.255 2.682 6.916 0 11.608-6.305 11.608-14.745 0-6.381-5.405-12.325-13.62-12.325z"/><path fill="#9D9D9D" d="M51.084 21.35c-1.333.592-2.767.992-4.271 1.171 1.535-.92 2.714-2.377 3.27-4.114-1.438.852-3.029 1.471-4.723 1.804-1.356-1.444-3.289-2.348-5.427-2.348-4.107 0-7.438 3.329-7.438 7.436 0 .583.067 1.15.194 1.695-6.182-.311-11.66-3.271-15.328-7.77-.641 1.099-1.007 2.376-1.007 3.739 0 2.58 1.312 4.856 3.308 6.19-1.219-.039-2.365-.374-3.368-.931v.094c0 3.603 2.563 6.608 5.964 7.292-.623.169-1.281.261-1.959.261-.479 0-.945-.046-1.398-.134.946 2.955 3.691 5.105 6.946 5.165-2.544 1.995-5.751 3.183-9.235 3.183-.6 0-1.192-.035-1.773-.104 3.291 2.11 7.2 3.341 11.399 3.341 13.678 0 21.158-11.332 21.158-21.159 0-.322-.007-.643-.021-.961 1.451-1.049 2.712-2.359 3.709-3.85z"/><circle fill="#fff" cx="-82.298" cy="31.654" r="31.654"/><polyline fill="#9D9D9D" points="-92.032,55.604 -85.622,35.915 -98.259,35.915 -76.74,6.795 -82.967,27.307 -69.047,27.307"/><circle fill="#5B588B" cx="146.547" cy="145.633" r="31.654"/><circle fill="#1A527E" cx="260.544" cy="145.633" r="31.654"/><path fill="#fff" d="M146.547 149.001l16-14.936v-1.432h-32v26h32v-21l-2.987 3.857v14.148h-26.062l.021-18.869 13.028 12.232zm0-2.753l-.01.01-11.493-10.883 23.002-.046-11.489 10.929-.01-.01z"/><circle fill="#6ACAF2" cx="31.654" cy="145.633" r="31.654"/><g fill-rule="evenodd" clip-rule="evenodd" fill="#fff"><path d="M252.091 158.764v-20.949h-6.962v20.949h6.962zm-3.481-23.809c2.428 0 3.939-1.609 3.939-3.619-.045-2.055-1.512-3.62-3.893-3.62-2.384 0-3.94 1.565-3.94 3.62 0 2.01 1.511 3.619 3.849 3.619h.045zM255.945 158.764h6.963v-11.698c0-.627.045-1.252.229-1.699.502-1.252 1.648-2.548 3.572-2.548 2.521 0 3.527 1.923 3.527 4.738v11.207h6.963v-12.012c0-6.435-3.436-9.429-8.017-9.429-3.757 0-5.405 2.1-6.322 3.53h.047v-3.039h-6.963c.092 1.966.001 20.95.001 20.95z"/></g><circle fill="#BC3C2D" cx="375.05" cy="145.633" r="31.654"/><path fill="#fff" d="M375.929 126.906c-10.222 0-15.376 7.328-15.376 13.439 0 3.701 1.401 6.992 4.406 8.219.492.202.934.008 1.076-.537l.439-1.727c.145-.54.089-.729-.309-1.199-.867-1.022-1.421-2.346-1.421-4.22 0-5.437 4.068-10.304 10.593-10.304 5.777 0 8.951 3.529 8.951 8.244 0 6.203-2.745 11.439-6.82 11.439-2.251 0-3.936-1.861-3.396-4.145.646-2.726 1.899-5.667 1.899-7.635 0-1.76-.945-3.229-2.901-3.229-2.301 0-4.149 2.38-4.149 5.569 0 2.03.687 3.404.687 3.404s-2.354 9.977-2.768 11.723c-.822 3.479-.123 7.745-.064 8.176.034.256.363.316.512.123.212-.277 2.952-3.66 3.884-7.04.264-.957 1.514-5.913 1.514-5.913.747 1.426 2.932 2.682 5.255 2.682 6.916 0 11.608-6.306 11.608-14.745 0-6.381-5.405-12.324-13.62-12.324z"/><path fill="#fff" d="M51.084 135.33c-1.333.592-2.767.991-4.271 1.171 1.535-.921 2.714-2.378 3.27-4.114-1.438.853-3.029 1.472-4.723 1.805-1.356-1.445-3.289-2.348-5.427-2.348-4.107 0-7.438 3.328-7.438 7.436 0 .584.067 1.15.194 1.695-6.182-.311-11.66-3.271-15.328-7.771-.641 1.099-1.007 2.376-1.007 3.739 0 2.579 1.312 4.855 3.308 6.189-1.219-.039-2.365-.373-3.368-.931v.094c0 3.603 2.563 6.608 5.964 7.292-.623.17-1.281.261-1.959.261-.479 0-.945-.046-1.398-.134.946 2.955 3.691 5.104 6.946 5.164-2.544 1.995-5.751 3.184-9.235 3.184-.6 0-1.192-.035-1.773-.104 3.291 2.109 7.2 3.341 11.399 3.341 13.678 0 21.158-11.331 21.158-21.159 0-.322-.007-.643-.021-.961 1.451-1.049 2.712-2.359 3.709-3.849z"/><circle fill="#5ABA6C" cx="-82.298" cy="145.633" r="31.654"/><polyline fill="#fff" points="-92.032,169.583 -85.622,149.894 -98.259,149.894 -76.74,120.775 -82.967,141.287 -69.047,141.287"/></svg></svg>
