<?xml version="1.0" encoding="utf-8"?>
<!-- Generator: Adobe Illustrator 15.0.2, SVG Export Plug-In . SVG Version: 6.00 Build 0)  -->
<!DOCTYPE svg PUBLIC "-//W3C//DTD SVG 1.1//EN" "http://www.w3.org/Graphics/SVG/1.1/DTD/svg11.dtd">
<svg version="1.1" id="Layer_2" xmlns="http://www.w3.org/2000/svg" xmlns:xlink="http://www.w3.org/1999/xlink" x="0px" y="0px"
	 width="471.347px" height="168.167px" viewBox="0 0 471.347 168.167" enable-background="new 0 0 471.347 168.167"
	 xml:space="preserve">
<g>
	<path fill="#313131" d="M87.476,48.119c0,0-6.645,10.235-19.935,10.235c-10.311,0-23.601-6.493-23.601-26.733
		C43.94,10.846,51.807,0,66.93,0c12.221,0,20.546,6.722,20.546,19.553c0,2.826-0.458,4.965-0.458,4.965h-2.902
		c0,0,0.229-2.902,0.229-5.118c0-8.86-4.888-16.498-17.415-16.498c-12.755,0-19.858,9.318-19.858,28.489
		c0,17.643,10.846,24.136,20.469,24.136c10.694,0,18.026-9.318,18.026-9.318L87.476,48.119z"/>
	<path fill="#313131" d="M93.201,54.382h5.881V21.844h-6.645v-2.826h6.187c1.986,0,3.514,1.833,3.514,4.354v31.01h5.958v2.826
		H93.201V54.382z M99.922,6.645c1.757,0,3.131,1.375,3.131,3.132c0,1.68-1.375,3.055-3.131,3.055c-1.68,0-3.055-1.375-3.055-3.055
		C96.867,8.02,98.242,6.645,99.922,6.645z"/>
	<path fill="#313131" d="M142.999,43.765c-1.681,4.125-6.874,14.589-17.262,14.589c-8.096,0-12.679-3.972-12.679-9.777
		c0-10.082,8.859-11.992,17.491-11.992h12.45v-3.208c0-8.707-3.819-12.755-13.138-12.755c-6.339,0-12.297,3.055-12.297,8.784
		c0,1.832,0.382,3.513,0.382,3.589h-2.902c0,0-0.458-0.916-0.458-3.514c0-8.401,7.408-11.609,15.275-11.609
		c11.763,0,16.192,4.506,16.192,15.504v19.325c0,13.978,7.867,20.623,18.865,20.623c7.409,0,14.437-6.493,14.437-10.923l2.979,0.153
		c0,6.492-7.18,13.748-17.415,13.748c-13.977,0-21.92-8.325-21.92-23.601V43.765z M142.769,39.335h-12.221
		c-6.722,0-14.436,1.146-14.436,9.089c0,3.667,3.667,6.951,9.624,6.951C134.52,55.375,140.249,45.216,142.769,39.335z"/>
	<path fill="#313131" d="M151.703,21.844v-2.826h6.187c1.985,0,3.514,1.833,3.514,4.354v10.616
		c0.229-2.062,2.597-16.115,13.824-16.115c0.688,0,1.299,0.152,1.299,0.152v3.437c-0.382-0.076-0.841-0.076-1.299-0.076
		c-11.457,0-13.824,18.941-13.824,19.4v13.596h5.957v2.826h-14.894v-2.826h5.881V21.844H151.703z"/>
	<path fill="#313131" d="M181.488,48.578c0-10.082,8.859-11.992,17.491-11.992h12.449v-3.208c0-8.707-3.819-12.755-13.137-12.755
		c-6.34,0-12.298,3.055-12.298,8.784c0,1.832,0.382,3.513,0.382,3.589h-2.902c0,0-0.457-0.916-0.457-3.514
		c0-8.401,7.407-11.609,15.275-11.609c11.762,0,16.191,4.506,16.191,15.504v21.005h6.646v2.826h-6.187
		c-1.985,0-3.514-1.833-3.514-4.354v-9.089c-1.68,4.125-6.874,14.589-17.262,14.589C186.071,58.354,181.488,54.382,181.488,48.578z
		 M211.2,39.335h-12.221c-6.799,0-14.437,1.146-14.437,9.089c0,3.667,3.667,6.951,9.624,6.951
		C202.95,55.375,208.678,45.216,211.2,39.335z"/>
	<path fill="#313131" d="M226.09,21.844v-2.826h6.187c1.985,0,3.513,1.833,3.513,4.354v10.77c0.229-0.764,4.66-16.269,16.423-16.269
		c9.317,0,11.609,7.79,11.609,16.574v30.64c0,13.978,7.867,20.623,18.865,20.623c7.41,0,14.436-6.493,14.436-10.922l2.979,0.153
		c0,6.492-7.181,13.748-17.415,13.748c-13.978,0-21.919-8.325-21.919-23.601V34.6c0-7.027-1.988-13.749-8.556-13.749
		c-11.229,0-16.193,18.789-16.423,19.935v13.596h5.958v2.826h-14.894v-2.826h5.881V21.844H226.09z"/>
</g>
<g>
	<g>
		<path fill="#313131" d="M136.366,86.649h-5.504l-21.567,62.042h-3.817L89.235,90.376l-16.42,58.315h-3.816l-27.76-70.299
			c0,0,3.284-1.421,4.438,1.865l25.009,62.399l16.509-59.291h3.994l16.42,59.202l18.816-54.053c1.154-3.286,2.22-5.148,4.704-5.148
			h5.237V86.649z"/>
		<path fill="#313131" d="M134.613,145.865h5.881v-32.537h-6.646v-2.826h6.187c1.986,0,3.514,1.832,3.514,4.354v31.009h5.958v2.826
			h-14.894V145.865z M141.333,98.129c1.757,0,3.131,1.375,3.131,3.13c0,1.679-1.374,3.054-3.131,3.054
			c-1.681,0-3.056-1.375-3.056-3.054C138.278,99.503,139.653,98.129,141.333,98.129z"/>
		<path fill="#313131" d="M161.267,101.259v9.243h16.956v2.826h-16.956v25.052c0,6.263,3.742,8.859,7.943,8.859
			c6.034,0,7.943-1.603,7.943-1.603l1.375,2.29c0,0-2.521,2.215-9.547,2.215c-6.264,0-10.847-3.743-10.847-11.686v-25.128h-6.339
			v-2.826h6.339v-7.257L161.267,101.259z"/>
		<path fill="#313131" d="M184.636,96.518c-17.72,0-32.461-5.88-32.461-5.88l1.451-2.294c0,0,15.963,5.499,31.087,5.499
			c0.916,0,1.908,0,2.826-0.075c0.533-12.375,5.116-26.578,20.622-26.578c8.478,0,12.449,4.659,12.449,11.305
			c0,9.47-12.831,16.114-30.094,17.793v29.335c0.229-0.764,4.66-16.267,16.422-16.267c9.318,0,11.61,7.789,11.61,16.574v19.934
			h6.645v2.826h-6.188c-1.985,0-3.513-1.832-3.513-4.354v-18.252c0-7.027-1.986-13.75-8.555-13.75
			c-11.457,0-16.422,19.707-16.422,19.934v13.597h5.958v2.826h-14.894v-2.826h5.881V96.441
			C186.469,96.518,185.552,96.518,184.636,96.518z M190.594,93.539c14.436-1.679,27.037-7.102,27.037-14.967
			c0-5.806-3.513-8.098-9.546-8.098C197.698,70.474,191.282,78.491,190.594,93.539z"/>
		<path fill="#313131" d="M229.391,145.865h5.881v-32.537h-6.646v-2.826h6.187c1.986,0,3.514,1.832,3.514,4.354v31.009h5.958v2.826
			h-14.894V145.865z M236.112,98.129c1.757,0,3.131,1.375,3.131,3.13c0,1.679-1.374,3.054-3.131,3.054
			c-1.681,0-3.056-1.375-3.056-3.054C233.056,99.503,234.431,98.129,236.112,98.129z"/>
		<path fill="#313131" d="M248.486,145.865h5.88v-32.537h-6.646v-2.826h6.188c1.983,0,3.512,1.832,3.512,4.354v10.768
			c0.229-0.764,4.66-16.267,16.423-16.267c9.318,0,11.608,7.789,11.608,16.574v19.934h6.646v2.826h-6.187
			c-1.987,0-3.514-1.832-3.514-4.354v-18.252c0-7.027-1.985-13.75-8.555-13.75c-11.229,0-16.423,18.79-16.423,19.934v13.597h5.959
			v2.826h-14.893V145.865z"/>
		<path fill="#313131" d="M329.595,109.357h-7.332v3.588c3.358,2.596,5.423,6.493,5.423,11.228c0,9.319-7.027,14.284-16.65,14.284
			c-4.431,0-7.944-0.84-10.617-2.445c-0.917,0.458-2.216,1.528-2.216,4.049c0,4.506,4.661,5.116,14.665,5.116
			c13.29,0,16.499,4.431,16.499,11.229c0,6.873-6.646,11.762-17.95,11.762c-9.242,0-17.031-3.284-17.031-13.597
			c0-3.971,2.596-6.644,4.582-8.172c-2.445-1.145-3.514-3.056-3.514-6.338c0-3.132,1.681-4.737,2.979-5.575
			c-2.445-2.371-3.744-5.729-3.744-10.083c0-9.166,7.408-15.046,16.04-15.046c3.209,0,6.187,0.685,8.708,1.83v-1.375
			c0-1.984,1.833-3.512,4.354-3.512h5.804V109.357z M301.563,147.163c-1.832,1.375-4.201,3.744-4.201,7.485
			c0,7.867,5.806,10.77,14.055,10.77c9.625,0,14.895-3.207,14.895-8.782c0-5.806-1.604-8.708-13.671-8.708
			C307.903,147.927,304.238,147.774,301.563,147.163z M311.036,135.63c8.479,0,13.518-4.047,13.518-11.458
			c0-7.333-5.882-12.066-13.518-12.066c-7.257,0-13.216,5.269-13.216,12.066C297.82,131.506,302.174,135.63,311.036,135.63z"/>
		<path fill="#313131" d="M341.353,101.259v9.243h16.957v2.826h-16.957v25.052c0,6.263,3.743,8.859,7.944,8.859
			c6.033,0,7.944-1.603,7.944-1.603l1.374,2.29c0,0-2.52,2.215-9.547,2.215c-6.265,0-10.847-3.743-10.847-11.686v-25.128h-6.34
			v-2.826h6.34v-7.257L341.353,101.259z"/>
		<path fill="#313131" d="M377.937,149.838c-9.93,0-17.797-6.723-17.797-20.32c0-11.456,7.333-20.162,17.797-20.162
			c10.465,0,17.874,8.706,17.874,20.162C395.811,143.116,387.866,149.838,377.937,149.838z M392.755,129.366
			c0-10.158-6.34-17.259-14.818-17.259c-8.478,0-14.741,7.102-14.741,17.259c0,11.305,6.874,17.723,14.741,17.723
			C385.805,147.088,392.755,140.67,392.755,129.366z"/>
		<path fill="#313131" d="M397.335,113.328v-2.826h6.185c1.987,0,3.516,1.832,3.516,4.354v10.768
			c0.228-0.764,4.658-16.267,16.42-16.267c9.317,0,11.611,7.789,11.611,16.574v18.255c0,13.977,7.865,20.621,18.864,20.621
			c7.409,0,14.437-6.493,14.437-10.922l2.979,0.153c0,6.491-7.181,13.748-17.416,13.748c-13.978,0-21.92-8.325-21.92-23.601v-18.102
			c0-7.027-1.987-13.75-8.556-13.75c-11.228,0-16.192,18.79-16.42,19.934v13.597h5.956v2.826h-14.895v-2.826h5.882v-32.537H397.335z
			"/>
	</g>
	<path fill="#313131" d="M42.899,82.646C37.55,68.989,26.661,65.761,14.994,70.333C7.134,73.41,2.162,82.675,3.859,87.006
		l-3.221,1.091c-2.483-6.349,2.355-16.421,13.216-20.676c14.827-5.808,26.439-0.972,32.288,13.954L42.899,82.646z"/>
	
		<rect x="24.391" y="107.064" transform="matrix(0.3699 0.9291 -0.9291 0.3699 135.8278 17.3123)" fill="#313131" width="61.52" height="3.462"/>
</g>
</svg>
