<?xml version="1.0" encoding="utf-8"?>
<!-- Generator: Adobe Illustrator 15.0.2, SVG Export Plug-In . SVG Version: 6.00 Build 0)  -->
<!DOCTYPE svg PUBLIC "-//W3C//DTD SVG 1.1//EN" "http://www.w3.org/Graphics/SVG/1.1/DTD/svg11.dtd">
<svg version="1.1" id="Layer_1" xmlns="http://www.w3.org/2000/svg" xmlns:xlink="http://www.w3.org/1999/xlink" x="0px" y="0px"
	 width="63.308px" height="63.308px" viewBox="0 0 63.308 63.308" enable-background="new 0 0 63.308 63.308" xml:space="preserve">
<circle fill="#FFFFFF" cx="31.654" cy="-82.326" r="31.654"/>
<circle fill="#FFFFFF" cx="145.651" cy="-82.326" r="31.654"/>
<g>
	<path fill="#9D9D9D" d="M31.653-78.958l16-14.935v-1.433h-3.639H31.653h-12h-4v1.125v0.308v2.567v18v4h4h12h12h1.361h2.639v-20.648
		v-0.352l-2.987,3.858v14.147H18.604l0.021-18.868L31.653-78.958z M31.653-81.712l-0.01,0.009L20.15-92.585l23.002-0.045
		L31.663-81.703L31.653-81.712z"/>
</g>
<circle fill="#FFFFFF" cx="-83.24" cy="-82.326" r="31.654"/>
<g>
	<path fill-rule="evenodd" clip-rule="evenodd" fill="#9D9D9D" d="M137.197-69.195v-20.949h-6.962v20.949H137.197L137.197-69.195z
		 M133.717-93.004c2.428,0,3.939-1.61,3.939-3.62c-0.045-2.055-1.512-3.62-3.893-3.62c-2.384,0-3.94,1.565-3.94,3.62
		c0,2.01,1.511,3.62,3.849,3.62H133.717L133.717-93.004z"/>
	<path fill-rule="evenodd" clip-rule="evenodd" fill="#9D9D9D" d="M141.052-69.195h6.963v-11.699c0-0.626,0.045-1.252,0.229-1.699
		c0.502-1.251,1.648-2.547,3.572-2.547c2.521,0,3.527,1.922,3.527,4.738v11.207h6.963v-12.012c0-6.435-3.436-9.429-8.017-9.429
		c-3.757,0-5.405,2.1-6.322,3.531h0.047v-3.039h-6.963C141.143-88.18,141.052-69.195,141.052-69.195L141.052-69.195z"/>
</g>
<circle fill="#FFFFFF" cx="260.157" cy="-82.326" r="31.654"/>
<path fill="#9D9D9D" d="M261.035-101.054c-10.222,0-15.376,7.329-15.376,13.44c0,3.7,1.401,6.992,4.406,8.219
	c0.492,0.202,0.934,0.007,1.076-0.538c0.1-0.377,0.335-1.331,0.439-1.727c0.145-0.54,0.089-0.729-0.309-1.199
	c-0.867-1.022-1.421-2.345-1.421-4.219c0-5.437,4.068-10.304,10.593-10.304c5.777,0,8.951,3.53,8.951,8.245
	c0,6.203-2.745,11.438-6.82,11.438c-2.251,0-3.936-1.861-3.396-4.144c0.646-2.726,1.899-5.667,1.899-7.634
	c0-1.761-0.945-3.23-2.901-3.23c-2.301,0-4.149,2.38-4.149,5.569c0,2.031,0.687,3.404,0.687,3.404s-2.354,9.977-2.768,11.724
	c-0.822,3.479-0.123,7.745-0.064,8.175c0.034,0.255,0.363,0.316,0.512,0.124c0.212-0.277,2.952-3.661,3.884-7.041
	c0.264-0.957,1.514-5.914,1.514-5.914c0.747,1.426,2.932,2.682,5.255,2.682c6.916,0,11.608-6.305,11.608-14.745
	C274.655-95.11,269.25-101.054,261.035-101.054z"/>
<path fill="#9D9D9D" d="M-63.809-92.63c-1.333,0.592-2.767,0.992-4.271,1.171c1.535-0.92,2.714-2.377,3.27-4.114
	c-1.438,0.852-3.029,1.471-4.723,1.804c-1.356-1.444-3.289-2.348-5.427-2.348c-4.107,0-7.438,3.329-7.438,7.436
	c0,0.583,0.067,1.15,0.194,1.695c-6.182-0.311-11.66-3.271-15.328-7.77c-0.641,1.099-1.007,2.376-1.007,3.739
	c0,2.58,1.312,4.856,3.308,6.19c-1.219-0.039-2.365-0.374-3.368-0.931c0,0.031,0,0.062,0,0.094c0,3.603,2.563,6.608,5.964,7.292
	c-0.623,0.169-1.281,0.261-1.959,0.261c-0.479,0-0.945-0.046-1.398-0.134c0.946,2.955,3.691,5.105,6.946,5.165
	c-2.544,1.995-5.751,3.183-9.235,3.183c-0.6,0-1.192-0.035-1.773-0.104c3.291,2.11,7.2,3.341,11.399,3.341
	c13.678,0,21.158-11.332,21.158-21.159c0-0.322-0.007-0.643-0.021-0.961C-66.068-89.829-64.807-91.139-63.809-92.63z"/>
<circle fill="#FFFFFF" cx="-197.191" cy="-82.326" r="31.654"/>
<polyline fill="#9D9D9D" points="-206.926,-58.376 -200.516,-78.065 -213.153,-78.065 -191.633,-107.185 -197.86,-86.673 
	-183.941,-86.673 "/>
<circle fill="#5B588B" cx="31.654" cy="31.653" r="31.654"/>
<circle fill="#1A527E" cx="145.651" cy="31.653" r="31.654"/>
<g>
	<path fill="#FFFFFF" d="M31.653,35.021l16-14.936v-1.432h-3.639H31.653h-12h-4v1.125v0.307v2.568v18v4h4h12h12h1.361h2.639V24.006
		v-0.352l-2.987,3.857V41.66H18.604l0.021-18.869L31.653,35.021z M31.653,32.268l-0.01,0.01L20.15,21.395l23.002-0.046
		L31.663,32.277L31.653,32.268z"/>
</g>
<circle fill="#6ACAF2" cx="-83.24" cy="31.653" r="31.654"/>
<g>
	<path fill-rule="evenodd" clip-rule="evenodd" fill="#FFFFFF" d="M137.197,44.784V23.835h-6.962v20.949H137.197L137.197,44.784z
		 M133.717,20.975c2.428,0,3.939-1.609,3.939-3.619c-0.045-2.055-1.512-3.62-3.893-3.62c-2.384,0-3.94,1.565-3.94,3.62
		c0,2.01,1.511,3.619,3.849,3.619H133.717L133.717,20.975z"/>
	<path fill-rule="evenodd" clip-rule="evenodd" fill="#FFFFFF" d="M141.052,44.784h6.963V33.086c0-0.627,0.045-1.252,0.229-1.699
		c0.502-1.252,1.648-2.548,3.572-2.548c2.521,0,3.527,1.923,3.527,4.738v11.207h6.963V32.772c0-6.435-3.436-9.429-8.017-9.429
		c-3.757,0-5.405,2.1-6.322,3.53h0.047v-3.039h-6.963C141.143,25.8,141.052,44.784,141.052,44.784L141.052,44.784z"/>
</g>
<circle fill="#BC3C2D" cx="260.157" cy="31.653" r="31.654"/>
<path fill="#FFFFFF" d="M261.035,12.926c-10.222,0-15.376,7.328-15.376,13.439c0,3.701,1.401,6.992,4.406,8.219
	c0.492,0.202,0.934,0.008,1.076-0.537c0.1-0.378,0.335-1.331,0.439-1.727c0.145-0.54,0.089-0.729-0.309-1.199
	c-0.867-1.022-1.421-2.346-1.421-4.22c0-5.437,4.068-10.304,10.593-10.304c5.777,0,8.951,3.529,8.951,8.244
	c0,6.203-2.745,11.439-6.82,11.439c-2.251,0-3.936-1.861-3.396-4.145c0.646-2.726,1.899-5.667,1.899-7.635
	c0-1.76-0.945-3.229-2.901-3.229c-2.301,0-4.149,2.38-4.149,5.569c0,2.03,0.687,3.404,0.687,3.404s-2.354,9.977-2.768,11.723
	c-0.822,3.479-0.123,7.745-0.064,8.176c0.034,0.256,0.363,0.316,0.512,0.123c0.212-0.277,2.952-3.66,3.884-7.04
	c0.264-0.957,1.514-5.913,1.514-5.913c0.747,1.426,2.932,2.682,5.255,2.682c6.916,0,11.608-6.306,11.608-14.745
	C274.655,18.869,269.25,12.926,261.035,12.926z"/>
<path fill="#FFFFFF" d="M-63.809,21.35c-1.333,0.592-2.767,0.991-4.271,1.171c1.535-0.921,2.714-2.378,3.27-4.114
	c-1.438,0.853-3.029,1.472-4.723,1.805c-1.356-1.445-3.289-2.348-5.427-2.348c-4.107,0-7.438,3.328-7.438,7.436
	c0,0.584,0.067,1.15,0.194,1.695c-6.182-0.311-11.66-3.271-15.328-7.771c-0.641,1.099-1.007,2.376-1.007,3.739
	c0,2.579,1.312,4.855,3.308,6.189c-1.219-0.039-2.365-0.373-3.368-0.931c0,0.031,0,0.062,0,0.094c0,3.603,2.563,6.608,5.964,7.292
	c-0.623,0.17-1.281,0.261-1.959,0.261c-0.479,0-0.945-0.046-1.398-0.134c0.946,2.955,3.691,5.104,6.946,5.164
	c-2.544,1.995-5.751,3.184-9.235,3.184c-0.6,0-1.192-0.035-1.773-0.104c3.291,2.109,7.2,3.341,11.399,3.341
	c13.678,0,21.158-11.331,21.158-21.159c0-0.322-0.007-0.643-0.021-0.961C-66.068,24.15-64.807,22.84-63.809,21.35z"/>
<circle fill="#5ABA6C" cx="-197.191" cy="31.653" r="31.654"/>
<polyline fill="#FFFFFF" points="-206.926,55.604 -200.516,35.914 -213.153,35.914 -191.633,6.795 -197.86,27.307 -183.941,27.307 
	"/>
</svg>
